<?xml version="1.0" encoding="UTF-8" standalone="no"?><svg xmlns="http://www.w3.org/2000/svg" xmlns:xlink="http://www.w3.org/1999/xlink" clip-rule="evenodd" stroke-miterlimit="4.00" viewBox="0 0 1024 768"><desc>SVG generated by Keynote</desc><defs></defs><g transform="matrix(1.00, 0.00, -0.00, -1.00, 0.0, 768.0)"><path d="M 0.0 768.0 L 1024.0 768.0 L 1024.0 0.0 L 0.0 0.0 Z M 0.0 768.0 " fill="#EAEAEA"></path><path d="M 0.0 0.0 L 960.0 0.0 " fill="none" stroke="#A6AAA9" stroke-width="2.00" transform="matrix(1.00, 0.00, 0.00, -1.00, 32.0, 689.8)"></path><text xml:space="preserve" font-family="DINAlternate-Bold" font-weight="bold" font-size="24.0" fill="#838686" transform="matrix(1.00, 0.00, -0.00, -1.00, 36.0, 705.0)">C</text><text xml:space="preserve" font-family="DINAlternate-Bold" font-weight="bold" font-size="24.0" fill="#838686" transform="matrix(1.00, 0.00, -0.00, -1.00, 50.6, 705.0)">R</text><text xml:space="preserve" font-family="DINAlternate-Bold" font-weight="bold" font-size="24.0" fill="#838686" transform="matrix(1.00, 0.00, -0.00, -1.00, 66.4, 705.0)">E</text><text xml:space="preserve" font-family="DINAlternate-Bold" font-weight="bold" font-size="24.0" fill="#838686" transform="matrix(1.00, 0.00, -0.00, -1.00, 80.9, 705.0)">A</text><text xml:space="preserve" font-family="DINAlternate-Bold" font-weight="bold" font-size="24.0" fill="#838686" transform="matrix(1.00, 0.00, -0.00, -1.00, 95.0, 705.0)">T</text><text xml:space="preserve" font-family="DINAlternate-Bold" font-weight="bold" font-size="24.0" fill="#838686" transform="matrix(1.00, 0.00, -0.00, -1.00, 108.2, 705.0)">E</text><text xml:space="preserve" font-family="DINAlternate-Bold" font-weight="bold" font-size="24.0" fill="#838686" transform="matrix(1.00, 0.00, -0.00, -1.00, 122.7, 705.0)"> </text><text xml:space="preserve" font-family="DINAlternate-Bold" font-weight="bold" font-size="24.0" fill="#838686" transform="matrix(1.00, 0.00, -0.00, -1.00, 129.7, 705.0)">A</text><text xml:space="preserve" font-family="DINAlternate-Bold" font-weight="bold" font-size="24.0" fill="#838686" transform="matrix(1.00, 0.00, -0.00, -1.00, 145.5, 705.0)"> </text><text xml:space="preserve" font-family="DINAlternate-Bold" font-weight="bold" font-size="24.0" fill="#838686" transform="matrix(1.00, 0.00, -0.00, -1.00, 152.5, 705.0)">B</text><text xml:space="preserve" font-family="DINAlternate-Bold" font-weight="bold" font-size="24.0" fill="#838686" transform="matrix(1.00, 0.00, -0.00, -1.00, 168.3, 705.0)">L</text><text xml:space="preserve" font-family="DINAlternate-Bold" font-weight="bold" font-size="24.0" fill="#838686" transform="matrix(1.00, 0.00, -0.00, -1.00, 182.9, 705.0)">O</text><text xml:space="preserve" font-family="DINAlternate-Bold" font-weight="bold" font-size="24.0" fill="#838686" transform="matrix(1.00, 0.00, -0.00, -1.00, 198.7, 705.0)">G</text><text xml:space="preserve" font-family="DINAlternate-Bold" font-weight="bold" font-size="24.0" fill="#838686" transform="matrix(1.00, 0.00, -0.00, -1.00, 214.5, 705.0)"> </text><text xml:space="preserve" font-family="DINAlternate-Bold" font-weight="bold" font-size="24.0" fill="#838686" transform="matrix(1.00, 0.00, -0.00, -1.00, 221.5, 705.0)">W</text><text xml:space="preserve" font-family="DINAlternate-Bold" font-weight="bold" font-size="24.0" fill="#838686" transform="matrix(1.00, 0.00, -0.00, -1.00, 242.6, 705.0)">I</text><text xml:space="preserve" font-family="DINAlternate-Bold" font-weight="bold" font-size="24.0" fill="#838686" transform="matrix(1.00, 0.00, -0.00, -1.00, 250.0, 705.0)">T</text><text xml:space="preserve" font-family="DINAlternate-Bold" font-weight="bold" font-size="24.0" fill="#838686" transform="matrix(1.00, 0.00, -0.00, -1.00, 263.2, 705.0)">H</text><text xml:space="preserve" font-family="DINAlternate-Bold" font-weight="bold" font-size="24.0" fill="#838686" transform="matrix(1.00, 0.00, -0.00, -1.00, 280.0, 705.0)"> </text><text xml:space="preserve" font-family="DINAlternate-Bold" font-weight="bold" font-size="24.0" fill="#838686" transform="matrix(1.00, 0.00, -0.00, -1.00, 286.9, 705.0)">J</text><text xml:space="preserve" font-family="DINAlternate-Bold" font-weight="bold" font-size="24.0" fill="#838686" transform="matrix(1.00, 0.00, -0.00, -1.00, 299.7, 705.0)">E</text><text xml:space="preserve" font-family="DINAlternate-Bold" font-weight="bold" font-size="24.0" fill="#838686" transform="matrix(1.00, 0.00, -0.00, -1.00, 314.2, 705.0)">K</text><text xml:space="preserve" font-family="DINAlternate-Bold" font-weight="bold" font-size="24.0" fill="#838686" transform="matrix(1.00, 0.00, -0.00, -1.00, 330.6, 705.0)">Y</text><text xml:space="preserve" font-family="DINAlternate-Bold" font-weight="bold" font-size="24.0" fill="#838686" transform="matrix(1.00, 0.00, -0.00, -1.00, 343.8, 705.0)">L</text><text xml:space="preserve" font-family="DINAlternate-Bold" font-weight="bold" font-size="24.0" fill="#838686" transform="matrix(1.00, 0.00, -0.00, -1.00, 358.3, 705.0)">L</text><text xml:space="preserve" font-family="DINCondensed-Bold" font-weight="bold" font-size="48.0" fill="#34A4DA" transform="matrix(1.00, 0.00, -0.00, -1.00, 36.0, 608.0)">I</text><text xml:space="preserve" font-family="DINCondensed-Bold" font-weight="bold" font-size="48.0" fill="#34A4DA" transform="matrix(1.00, 0.00, -0.00, -1.00, 45.8, 608.0)">N</text><text xml:space="preserve" font-family="DINCondensed-Bold" font-weight="bold" font-size="48.0" fill="#34A4DA" transform="matrix(1.00, 0.00, -0.00, -1.00, 67.1, 608.0)">S</text><text xml:space="preserve" font-family="DINCondensed-Bold" font-weight="bold" font-size="48.0" fill="#34A4DA" transform="matrix(1.00, 0.00, -0.00, -1.00, 86.6, 608.0)">T</text><text xml:space="preserve" font-family="DINCondensed-Bold" font-weight="bold" font-size="48.0" fill="#34A4DA" transform="matrix(1.00, 0.00, -0.00, -1.00, 99.9, 608.0)">A</text><text xml:space="preserve" font-family="DINCondensed-Bold" font-weight="bold" font-size="48.0" fill="#34A4DA" transform="matrix(1.00, 0.00, -0.00, -1.00, 119.4, 608.0)">L</text><text xml:space="preserve" font-family="DINCondensed-Bold" font-weight="bold" font-size="48.0" fill="#34A4DA" transform="matrix(1.00, 0.00, -0.00, -1.00, 137.2, 608.0)">L</text><text xml:space="preserve" font-family="DINCondensed-Bold" font-weight="bold" font-size="48.0" fill="#34A4DA" transform="matrix(1.00, 0.00, -0.00, -1.00, 154.9, 608.0)">A</text><text xml:space="preserve" font-family="DINCondensed-Bold" font-weight="bold" font-size="48.0" fill="#34A4DA" transform="matrix(1.00, 0.00, -0.00, -1.00, 171.8, 608.0)">T</text><text xml:space="preserve" font-family="DINCondensed-Bold" font-weight="bold" font-size="48.0" fill="#34A4DA" transform="matrix(1.00, 0.00, -0.00, -1.00, 187.8, 608.0)">I</text><text xml:space="preserve" font-family="DINCondensed-Bold" font-weight="bold" font-size="48.0" fill="#34A4DA" transform="matrix(1.00, 0.00, -0.00, -1.00, 197.6, 608.0)">O</text><text xml:space="preserve" font-family="DINCondensed-Bold" font-weight="bold" font-size="48.0" fill="#34A4DA" transform="matrix(1.00, 0.00, -0.00, -1.00, 218.0, 608.0)">N</text><text xml:space="preserve" font-family="DINCondensed-Bold" font-weight="bold" font-size="48.0" fill="#34A4DA" transform="matrix(1.00, 0.00, -0.00, -1.00, 239.3, 608.0)"> </text><text xml:space="preserve" font-family="DINCondensed-Bold" font-weight="bold" font-size="48.0" fill="#34A4DA" transform="matrix(1.00, 0.00, -0.00, -1.00, 248.3, 608.0)">F</text><text xml:space="preserve" font-family="DINCondensed-Bold" font-weight="bold" font-size="48.0" fill="#34A4DA" transform="matrix(1.00, 0.00, -0.00, -1.00, 266.0, 608.0)">E</text><text xml:space="preserve" font-family="DINCondensed-Bold" font-weight="bold" font-size="48.0" fill="#34A4DA" transform="matrix(1.00, 0.00, -0.00, -1.00, 283.8, 608.0)">S</text><text xml:space="preserve" font-family="DINCondensed-Bold" font-weight="bold" font-size="48.0" fill="#34A4DA" transform="matrix(1.00, 0.00, -0.00, -1.00, 303.3, 608.0)">T</text><text xml:space="preserve" font-family="LucidaGrande" font-size="35.7" fill="#34A4DA" transform="matrix(1.00, 0.00, -0.00, -1.00, 79.3, 530.7)">▸</text><text xml:space="preserve" font-family="AvenirNext-DemiBold" font-weight="bold" font-size="34.0" fill="#4E8F00" transform="matrix(1.00, 0.00, -0.00, -1.00, 114.0, 534.0)">S</text><text xml:space="preserve" font-family="AvenirNext-DemiBold" font-weight="bold" font-size="34.0" fill="#4E8F00" transform="matrix(1.00, 0.00, -0.00, -1.00, 133.5, 534.0)">u</text><text xml:space="preserve" font-family="AvenirNext-DemiBold" font-weight="bold" font-size="34.0" fill="#4E8F00" transform="matrix(1.00, 0.00, -0.00, -1.00, 153.3, 534.0)">c</text><text xml:space="preserve" font-family="AvenirNext-DemiBold" font-weight="bold" font-size="34.0" fill="#4E8F00" transform="matrix(1.00, 0.00, -0.00, -1.00, 169.9, 534.0)">c</text><text xml:space="preserve" font-family="AvenirNext-DemiBold" font-weight="bold" font-size="34.0" fill="#4E8F00" transform="matrix(1.00, 0.00, -0.00, -1.00, 186.5, 534.0)">e</text><text xml:space="preserve" font-family="AvenirNext-DemiBold" font-weight="bold" font-size="34.0" fill="#4E8F00" transform="matrix(1.00, 0.00, -0.00, -1.00, 206.0, 534.0)">s</text><text xml:space="preserve" font-family="AvenirNext-DemiBold" font-weight="bold" font-size="34.0" fill="#4E8F00" transform="matrix(1.00, 0.00, -0.00, -1.00, 221.1, 534.0)">s</text><text xml:space="preserve" font-family="AvenirNext-DemiBold" font-weight="bold" font-size="34.0" fill="#4E8F00" transform="matrix(1.00, 0.00, -0.00, -1.00, 236.2, 534.0)">!</text><text xml:space="preserve" font-family="AvenirNext-DemiBold" font-weight="bold" font-size="34.0" fill="#B9BEC1" transform="matrix(1.00, 0.00, -0.00, -1.00, 247.8, 534.0)"> </text><text xml:space="preserve" font-family="AvenirNext-Medium" font-size="34.0" fill="#838786" transform="matrix(1.00, 0.00, -0.00, -1.00, 256.3, 534.0)">I</text><text xml:space="preserve" font-family="AvenirNext-Medium" font-size="34.0" fill="#838786" transform="matrix(1.00, 0.00, -0.00, -1.00, 265.5, 534.0)">f</text><text xml:space="preserve" font-family="AvenirNext-Medium" font-size="34.0" fill="#838786" transform="matrix(1.00, 0.00, -0.00, -1.00, 276.8, 534.0)"> </text><text xml:space="preserve" font-family="AvenirNext-Medium" font-size="34.0" fill="#838786" transform="matrix(1.00, 0.00, -0.00, -1.00, 285.3, 534.0)">y</text><text xml:space="preserve" font-family="AvenirNext-Medium" font-size="34.0" fill="#838786" transform="matrix(1.00, 0.00, -0.00, -1.00, 302.5, 534.0)">o</text><text xml:space="preserve" font-family="AvenirNext-Medium" font-size="34.0" fill="#838786" transform="matrix(1.00, 0.00, -0.00, -1.00, 323.2, 534.0)">u</text><text xml:space="preserve" font-family="AvenirNext-Medium" font-size="34.0" fill="#838786" transform="matrix(1.00, 0.00, -0.00, -1.00, 343.0, 534.0)"> </text><text xml:space="preserve" font-family="AvenirNext-Medium" font-size="34.0" fill="#838786" transform="matrix(1.00, 0.00, -0.00, -1.00, 351.5, 534.0)">v</text><text xml:space="preserve" font-family="AvenirNext-Medium" font-size="34.0" fill="#838786" transform="matrix(1.00, 0.00, -0.00, -1.00, 368.6, 534.0)">i</text><text xml:space="preserve" font-family="AvenirNext-Medium" font-size="34.0" fill="#838786" transform="matrix(1.00, 0.00, -0.00, -1.00, 377.4, 534.0)">s</text><text xml:space="preserve" font-family="AvenirNext-Medium" font-size="34.0" fill="#838786" transform="matrix(1.00, 0.00, -0.00, -1.00, 392.5, 534.0)">i</text><text xml:space="preserve" font-family="AvenirNext-Medium" font-size="34.0" fill="#838786" transform="matrix(1.00, 0.00, -0.00, -1.00, 401.3, 534.0)">t</text><text xml:space="preserve" font-family="AvenirNext-Medium" font-size="34.0" fill="#838786" transform="matrix(1.00, 0.00, -0.00, -1.00, 412.5, 534.0)"> </text><text xml:space="preserve" font-family="AvenirNext-Medium" font-size="34.0" fill="#838786" transform="matrix(1.00, 0.00, -0.00, -1.00, 421.0, 534.0)">h</text><text xml:space="preserve" font-family="AvenirNext-Medium" font-size="34.0" fill="#838786" transform="matrix(1.00, 0.00, -0.00, -1.00, 440.9, 534.0)">t</text><text xml:space="preserve" font-family="AvenirNext-Medium" font-size="34.0" fill="#838786" transform="matrix(1.00, 0.00, -0.00, -1.00, 451.6, 534.0)">t</text><text xml:space="preserve" font-family="AvenirNext-Medium" font-size="34.0" fill="#838786" transform="matrix(1.00, 0.00, -0.00, -1.00, 462.7, 534.0)">p</text><text xml:space="preserve" font-family="AvenirNext-Medium" font-size="34.0" fill="#838786" transform="matrix(1.00, 0.00, -0.00, -1.00, 484.3, 534.0)">:</text><text xml:space="preserve" font-family="AvenirNext-Medium" font-size="34.0" fill="#838786" transform="matrix(1.00, 0.00, -0.00, -1.00, 494.5, 534.0)">/</text><text xml:space="preserve" font-family="AvenirNext-Medium" font-size="34.0" fill="#838786" transform="matrix(1.00, 0.00, -0.00, -1.00, 507.4, 534.0)">/</text><text xml:space="preserve" font-family="AvenirNext-Medium" font-size="34.0" fill="#838786" transform="matrix(1.00, 0.00, -0.00, -1.00, 520.3, 534.0)">1</text><text xml:space="preserve" font-family="AvenirNext-Medium" font-size="34.0" fill="#838786" transform="matrix(1.00, 0.00, -0.00, -1.00, 540.6, 534.0)">2</text><text xml:space="preserve" font-family="AvenirNext-Medium" font-size="34.0" fill="#838786" transform="matrix(1.00, 0.00, -0.00, -1.00, 560.8, 534.0)">7</text><text xml:space="preserve" font-family="AvenirNext-Medium" font-size="34.0" fill="#838786" transform="matrix(1.00, 0.00, -0.00, -1.00, 581.0, 534.0)">.</text><text xml:space="preserve" font-family="AvenirNext-Medium" font-size="34.0" fill="#838786" transform="matrix(1.00, 0.00, -0.00, -1.00, 589.9, 534.0)">0</text><text xml:space="preserve" font-family="AvenirNext-Medium" font-size="34.0" fill="#838786" transform="matrix(1.00, 0.00, -0.00, -1.00, 610.1, 534.0)">.</text><text xml:space="preserve" font-family="AvenirNext-Medium" font-size="34.0" fill="#838786" transform="matrix(1.00, 0.00, -0.00, -1.00, 618.9, 534.0)">0</text><text xml:space="preserve" font-family="AvenirNext-Medium" font-size="34.0" fill="#838786" transform="matrix(1.00, 0.00, -0.00, -1.00, 639.2, 534.0)">.</text><text xml:space="preserve" font-family="AvenirNext-Medium" font-size="34.0" fill="#838786" transform="matrix(1.00, 0.00, -0.00, -1.00, 648.0, 534.0)">1</text><text xml:space="preserve" font-family="AvenirNext-Medium" font-size="34.0" fill="#838786" transform="matrix(1.00, 0.00, -0.00, -1.00, 668.2, 534.0)">:</text><text xml:space="preserve" font-family="AvenirNext-Medium" font-size="34.0" fill="#838786" transform="matrix(1.00, 0.00, -0.00, -1.00, 678.4, 534.0)">4</text><text xml:space="preserve" font-family="AvenirNext-Medium" font-size="34.0" fill="#838786" transform="matrix(1.00, 0.00, -0.00, -1.00, 698.7, 534.0)">0</text><text xml:space="preserve" font-family="AvenirNext-Medium" font-size="34.0" fill="#838786" transform="matrix(1.00, 0.00, -0.00, -1.00, 718.9, 534.0)">0</text><text xml:space="preserve" font-family="AvenirNext-Medium" font-size="34.0" fill="#838786" transform="matrix(1.00, 0.00, -0.00, -1.00, 739.1, 534.0)">0</text><text xml:space="preserve" font-family="AvenirNext-Medium" font-size="34.0" fill="#838786" transform="matrix(1.00, 0.00, -0.00, -1.00, 759.4, 534.0)">/</text><text xml:space="preserve" font-family="AvenirNext-Medium" font-size="34.0" fill="#838786" transform="matrix(1.00, 0.00, -0.00, -1.00, 772.3, 534.0)">d</text><text xml:space="preserve" font-family="AvenirNext-Medium" font-size="34.0" fill="#838786" transform="matrix(1.00, 0.00, -0.00, -1.00, 793.9, 534.0)">a</text><text xml:space="preserve" font-family="AvenirNext-Medium" font-size="34.0" fill="#838786" transform="matrix(1.00, 0.00, -0.00, -1.00, 812.3, 534.0)">c</text><text xml:space="preserve" font-family="AvenirNext-Medium" font-size="34.0" fill="#838786" transform="matrix(1.00, 0.00, -0.00, -1.00, 829.1, 534.0)">t</text><text xml:space="preserve" font-family="AvenirNext-Medium" font-size="34.0" fill="#838786" transform="matrix(1.00, 0.00, -0.00, -1.00, 840.3, 534.0)">l</text><text xml:space="preserve" font-family="AvenirNext-Medium" font-size="34.0" fill="#838786" transform="matrix(1.00, 0.00, -0.00, -1.00, 849.1, 534.0)">/</text><text xml:space="preserve" font-family="AvenirNext-Medium" font-size="34.0" fill="#838786" transform="matrix(1.00, 0.00, -0.00, -1.00, 862.0, 534.0)"> </text><text xml:space="preserve" font-family="AvenirNext-Medium" font-size="34.0" fill="#838786" transform="matrix(1.00, 0.00, -0.00, -1.00, 870.5, 534.0)">a</text><text xml:space="preserve" font-family="AvenirNext-Medium" font-size="34.0" fill="#838786" transform="matrix(1.00, 0.00, -0.00, -1.00, 889.0, 534.0)"> </text><text xml:space="preserve" font-family="AvenirNext-Medium" font-size="34.0" fill="#838786" transform="matrix(1.00, 0.00, -0.00, -1.00, 897.5, 534.0)">p</text><text xml:space="preserve" font-family="AvenirNext-Medium" font-size="34.0" fill="#838786" transform="matrix(1.00, 0.00, -0.00, -1.00, 919.0, 534.0)">a</text><text xml:space="preserve" font-family="AvenirNext-Medium" font-size="34.0" fill="#838786" transform="matrix(1.00, 0.00, -0.00, -1.00, 937.4, 534.0)">g</text><text xml:space="preserve" font-family="AvenirNext-Medium" font-size="34.0" fill="#838786" transform="matrix(1.00, 0.00, -0.00, -1.00, 958.9, 534.0)">e</text><text xml:space="preserve" font-family="AvenirNext-Medium" font-size="34.0" fill="#838786" transform="matrix(1.00, 0.00, -0.00, -1.00, 978.4, 534.0)"> </text><g><clipPath id="clip-75"><path d="M 420.3 529.7 L 862.3 529.7 L 862.3 533.4 L 420.3 533.4 Z M 420.3 529.7 "></path></clipPath><g clip-path="url(#clip-75)"><path d="M 346.0 40.1 L 787.0 40.1 " fill="none" stroke="#838786" stroke-width="1.70" stroke-miterlimit="0.00" transform="matrix(1.00, 0.00, 0.00, -1.00, 75.3, 571.7)"></path></g></g><text xml:space="preserve" font-family="AvenirNext-Medium" font-size="34.0" fill="#838786" transform="matrix(1.00, 0.00, -0.00, -1.00, 114.0, 488.0)">s</text><text xml:space="preserve" font-family="AvenirNext-Medium" font-size="34.0" fill="#838786" transform="matrix(1.00, 0.00, -0.00, -1.00, 129.1, 488.0)">i</text><text xml:space="preserve" font-family="AvenirNext-Medium" font-size="34.0" fill="#838786" transform="matrix(1.00, 0.00, -0.00, -1.00, 137.9, 488.0)">m</text><text xml:space="preserve" font-family="AvenirNext-Medium" font-size="34.0" fill="#838786" transform="matrix(1.00, 0.00, -0.00, -1.00, 168.1, 488.0)">i</text><text xml:space="preserve" font-family="AvenirNext-Medium" font-size="34.0" fill="#838786" transform="matrix(1.00, 0.00, -0.00, -1.00, 176.9, 488.0)">l</text><text xml:space="preserve" font-family="AvenirNext-Medium" font-size="34.0" fill="#838786" transform="matrix(1.00, 0.00, -0.00, -1.00, 185.7, 488.0)">a</text><text xml:space="preserve" font-family="AvenirNext-Medium" font-size="34.0" fill="#838786" transform="matrix(1.00, 0.00, -0.00, -1.00, 204.1, 488.0)">r</text><text xml:space="preserve" font-family="AvenirNext-Medium" font-size="34.0" fill="#838786" transform="matrix(1.00, 0.00, -0.00, -1.00, 216.4, 488.0)"> </text><text xml:space="preserve" font-family="AvenirNext-Medium" font-size="34.0" fill="#838786" transform="matrix(1.00, 0.00, -0.00, -1.00, 224.9, 488.0)">t</text><text xml:space="preserve" font-family="AvenirNext-Medium" font-size="34.0" fill="#838786" transform="matrix(1.00, 0.00, -0.00, -1.00, 236.1, 488.0)">o</text><text xml:space="preserve" font-family="AvenirNext-Medium" font-size="34.0" fill="#838786" transform="matrix(1.00, 0.00, -0.00, -1.00, 256.9, 488.0)"> </text><text xml:space="preserve" font-family="AvenirNext-Medium" font-size="34.0" fill="#838786" transform="matrix(1.00, 0.00, -0.00, -1.00, 265.4, 488.0)">t</text><text xml:space="preserve" font-family="AvenirNext-Medium" font-size="34.0" fill="#838786" transform="matrix(1.00, 0.00, -0.00, -1.00, 276.6, 488.0)">h</text><text xml:space="preserve" font-family="AvenirNext-Medium" font-size="34.0" fill="#838786" transform="matrix(1.00, 0.00, -0.00, -1.00, 296.4, 488.0)">i</text><text xml:space="preserve" font-family="AvenirNext-Medium" font-size="34.0" fill="#838786" transform="matrix(1.00, 0.00, -0.00, -1.00, 305.2, 488.0)">s</text><text xml:space="preserve" font-family="AvenirNext-Medium" font-size="34.0" fill="#838786" transform="matrix(1.00, 0.00, -0.00, -1.00, 320.3, 488.0)">.</text><text xml:space="preserve" font-family="DINAlternate-Bold" font-weight="bold" font-size="24.0" fill="#838686" transform="matrix(1.00, 0.00, -0.00, -1.00, 964.6, 707.4)">2</text><text xml:space="preserve" font-family="DINAlternate-Bold" font-weight="bold" font-size="24.0" fill="#838686" transform="matrix(1.00, 0.00, -0.00, -1.00, 976.1, 707.4)">1</text><image xlink:href="../../8CE2F60C-55F0-420E-9995-7760D32AB396/assets/B862245A4227F10AC754575F4FBFB3F1.png" width="430.00" height="326.00" transform="matrix(1.43, 0.00, -0.00, -1.43, 218.0, 468.0)"></image></g></svg>