<?xml version="1.0" encoding="UTF-8" standalone="no"?><svg xmlns="http://www.w3.org/2000/svg" xmlns:xlink="http://www.w3.org/1999/xlink" clip-rule="evenodd" stroke-miterlimit="4.00" viewBox="0 0 1024 768"><desc>SVG generated by Keynote</desc><defs></defs><g transform="matrix(1.00, 0.00, -0.00, -1.00, 0.0, 768.0)"><path d="M 0.0 768.0 L 1024.0 768.0 L 1024.0 0.0 L 0.0 0.0 Z M 0.0 768.0 " fill="#EAEAEA"></path><path d="M 0.0 0.0 L 960.0 0.0 " fill="none" stroke="#A6AAA9" stroke-width="2.00" transform="matrix(1.00, 0.00, 0.00, -1.00, 32.0, 689.8)"></path><text xml:space="preserve" font-family="DINAlternate-Bold" font-weight="bold" font-size="24.0" fill="#838686" transform="matrix(1.00, 0.00, -0.00, -1.00, 36.0, 705.0)">C</text><text xml:space="preserve" font-family="DINAlternate-Bold" font-weight="bold" font-size="24.0" fill="#838686" transform="matrix(1.00, 0.00, -0.00, -1.00, 50.6, 705.0)">R</text><text xml:space="preserve" font-family="DINAlternate-Bold" font-weight="bold" font-size="24.0" fill="#838686" transform="matrix(1.00, 0.00, -0.00, -1.00, 66.4, 705.0)">E</text><text xml:space="preserve" font-family="DINAlternate-Bold" font-weight="bold" font-size="24.0" fill="#838686" transform="matrix(1.00, 0.00, -0.00, -1.00, 80.9, 705.0)">A</text><text xml:space="preserve" font-family="DINAlternate-Bold" font-weight="bold" font-size="24.0" fill="#838686" transform="matrix(1.00, 0.00, -0.00, -1.00, 95.0, 705.0)">T</text><text xml:space="preserve" font-family="DINAlternate-Bold" font-weight="bold" font-size="24.0" fill="#838686" transform="matrix(1.00, 0.00, -0.00, -1.00, 108.2, 705.0)">E</text><text xml:space="preserve" font-family="DINAlternate-Bold" font-weight="bold" font-size="24.0" fill="#838686" transform="matrix(1.00, 0.00, -0.00, -1.00, 122.7, 705.0)"> </text><text xml:space="preserve" font-family="DINAlternate-Bold" font-weight="bold" font-size="24.0" fill="#838686" transform="matrix(1.00, 0.00, -0.00, -1.00, 129.7, 705.0)">A</text><text xml:space="preserve" font-family="DINAlternate-Bold" font-weight="bold" font-size="24.0" fill="#838686" transform="matrix(1.00, 0.00, -0.00, -1.00, 145.5, 705.0)"> </text><text xml:space="preserve" font-family="DINAlternate-Bold" font-weight="bold" font-size="24.0" fill="#838686" transform="matrix(1.00, 0.00, -0.00, -1.00, 152.5, 705.0)">B</text><text xml:space="preserve" font-family="DINAlternate-Bold" font-weight="bold" font-size="24.0" fill="#838686" transform="matrix(1.00, 0.00, -0.00, -1.00, 168.3, 705.0)">L</text><text xml:space="preserve" font-family="DINAlternate-Bold" font-weight="bold" font-size="24.0" fill="#838686" transform="matrix(1.00, 0.00, -0.00, -1.00, 182.9, 705.0)">O</text><text xml:space="preserve" font-family="DINAlternate-Bold" font-weight="bold" font-size="24.0" fill="#838686" transform="matrix(1.00, 0.00, -0.00, -1.00, 198.7, 705.0)">G</text><text xml:space="preserve" font-family="DINAlternate-Bold" font-weight="bold" font-size="24.0" fill="#838686" transform="matrix(1.00, 0.00, -0.00, -1.00, 214.5, 705.0)"> </text><text xml:space="preserve" font-family="DINAlternate-Bold" font-weight="bold" font-size="24.0" fill="#838686" transform="matrix(1.00, 0.00, -0.00, -1.00, 221.5, 705.0)">W</text><text xml:space="preserve" font-family="DINAlternate-Bold" font-weight="bold" font-size="24.0" fill="#838686" transform="matrix(1.00, 0.00, -0.00, -1.00, 242.6, 705.0)">I</text><text xml:space="preserve" font-family="DINAlternate-Bold" font-weight="bold" font-size="24.0" fill="#838686" transform="matrix(1.00, 0.00, -0.00, -1.00, 250.0, 705.0)">T</text><text xml:space="preserve" font-family="DINAlternate-Bold" font-weight="bold" font-size="24.0" fill="#838686" transform="matrix(1.00, 0.00, -0.00, -1.00, 263.2, 705.0)">H</text><text xml:space="preserve" font-family="DINAlternate-Bold" font-weight="bold" font-size="24.0" fill="#838686" transform="matrix(1.00, 0.00, -0.00, -1.00, 280.0, 705.0)"> </text><text xml:space="preserve" font-family="DINAlternate-Bold" font-weight="bold" font-size="24.0" fill="#838686" transform="matrix(1.00, 0.00, -0.00, -1.00, 286.9, 705.0)">J</text><text xml:space="preserve" font-family="DINAlternate-Bold" font-weight="bold" font-size="24.0" fill="#838686" transform="matrix(1.00, 0.00, -0.00, -1.00, 299.7, 705.0)">E</text><text xml:space="preserve" font-family="DINAlternate-Bold" font-weight="bold" font-size="24.0" fill="#838686" transform="matrix(1.00, 0.00, -0.00, -1.00, 314.2, 705.0)">K</text><text xml:space="preserve" font-family="DINAlternate-Bold" font-weight="bold" font-size="24.0" fill="#838686" transform="matrix(1.00, 0.00, -0.00, -1.00, 330.6, 705.0)">Y</text><text xml:space="preserve" font-family="DINAlternate-Bold" font-weight="bold" font-size="24.0" fill="#838686" transform="matrix(1.00, 0.00, -0.00, -1.00, 343.8, 705.0)">L</text><text xml:space="preserve" font-family="DINAlternate-Bold" font-weight="bold" font-size="24.0" fill="#838686" transform="matrix(1.00, 0.00, -0.00, -1.00, 358.3, 705.0)">L</text><text xml:space="preserve" font-family="DINCondensed-Bold" font-weight="bold" font-size="48.0" fill="#34A4DA" transform="matrix(1.00, 0.00, -0.00, -1.00, 36.0, 608.0)">Y</text><text xml:space="preserve" font-family="DINCondensed-Bold" font-weight="bold" font-size="48.0" fill="#34A4DA" transform="matrix(1.00, 0.00, -0.00, -1.00, 52.0, 608.0)">A</text><text xml:space="preserve" font-family="DINCondensed-Bold" font-weight="bold" font-size="48.0" fill="#34A4DA" transform="matrix(1.00, 0.00, -0.00, -1.00, 71.5, 608.0)">M</text><text xml:space="preserve" font-family="DINCondensed-Bold" font-weight="bold" font-size="48.0" fill="#34A4DA" transform="matrix(1.00, 0.00, -0.00, -1.00, 98.2, 608.0)">L</text><text xml:space="preserve" font-family="DINCondensed-Bold" font-weight="bold" font-size="48.0" fill="#34A4DA" transform="matrix(1.00, 0.00, -0.00, -1.00, 116.0, 608.0)"> </text><text xml:space="preserve" font-family="DINCondensed-Bold" font-weight="bold" font-size="48.0" fill="#34A4DA" transform="matrix(1.00, 0.00, -0.00, -1.00, 124.9, 608.0)">F</text><text xml:space="preserve" font-family="DINCondensed-Bold" font-weight="bold" font-size="48.0" fill="#34A4DA" transform="matrix(1.00, 0.00, -0.00, -1.00, 142.7, 608.0)">R</text><text xml:space="preserve" font-family="DINCondensed-Bold" font-weight="bold" font-size="48.0" fill="#34A4DA" transform="matrix(1.00, 0.00, -0.00, -1.00, 163.1, 608.0)">O</text><text xml:space="preserve" font-family="DINCondensed-Bold" font-weight="bold" font-size="48.0" fill="#34A4DA" transform="matrix(1.00, 0.00, -0.00, -1.00, 183.6, 608.0)">N</text><text xml:space="preserve" font-family="DINCondensed-Bold" font-weight="bold" font-size="48.0" fill="#34A4DA" transform="matrix(1.00, 0.00, -0.00, -1.00, 204.9, 608.0)">T</text><text xml:space="preserve" font-family="DINCondensed-Bold" font-weight="bold" font-size="48.0" fill="#34A4DA" transform="matrix(1.00, 0.00, -0.00, -1.00, 220.8, 608.0)"> </text><text xml:space="preserve" font-family="DINCondensed-Bold" font-weight="bold" font-size="48.0" fill="#34A4DA" transform="matrix(1.00, 0.00, -0.00, -1.00, 229.7, 608.0)">M</text><text xml:space="preserve" font-family="DINCondensed-Bold" font-weight="bold" font-size="48.0" fill="#34A4DA" transform="matrix(1.00, 0.00, -0.00, -1.00, 256.4, 608.0)">A</text><text xml:space="preserve" font-family="DINCondensed-Bold" font-weight="bold" font-size="48.0" fill="#34A4DA" transform="matrix(1.00, 0.00, -0.00, -1.00, 273.3, 608.0)">T</text><text xml:space="preserve" font-family="DINCondensed-Bold" font-weight="bold" font-size="48.0" fill="#34A4DA" transform="matrix(1.00, 0.00, -0.00, -1.00, 289.2, 608.0)">T</text><text xml:space="preserve" font-family="DINCondensed-Bold" font-weight="bold" font-size="48.0" fill="#34A4DA" transform="matrix(1.00, 0.00, -0.00, -1.00, 305.2, 608.0)">E</text><text xml:space="preserve" font-family="DINCondensed-Bold" font-weight="bold" font-size="48.0" fill="#34A4DA" transform="matrix(1.00, 0.00, -0.00, -1.00, 322.9, 608.0)">R</text><text xml:space="preserve" font-family="LucidaGrande" font-size="32.8" fill="#34A4DA" transform="matrix(1.00, 0.00, -0.00, -1.00, 36.0, 515.7)">‣</text><text xml:space="preserve" font-family="AvenirNext-Medium" font-size="31.3" fill="#838686" transform="matrix(1.00, 0.00, -0.00, -1.00, 68.0, 514.0)">P</text><text xml:space="preserve" font-family="AvenirNext-Medium" font-size="31.3" fill="#838686" transform="matrix(1.00, 0.00, -0.00, -1.00, 84.9, 514.0)">a</text><text xml:space="preserve" font-family="AvenirNext-Medium" font-size="31.3" fill="#838686" transform="matrix(1.00, 0.00, -0.00, -1.00, 101.8, 514.0)">s</text><text xml:space="preserve" font-family="AvenirNext-Medium" font-size="31.3" fill="#838686" transform="matrix(1.00, 0.00, -0.00, -1.00, 115.7, 514.0)">t</text><text xml:space="preserve" font-family="AvenirNext-Medium" font-size="31.3" fill="#838686" transform="matrix(1.00, 0.00, -0.00, -1.00, 126.0, 514.0)">e</text><text xml:space="preserve" font-family="AvenirNext-Medium" font-size="31.3" fill="#838686" transform="matrix(1.00, 0.00, -0.00, -1.00, 143.9, 514.0)"> </text><text xml:space="preserve" font-family="AvenirNext-Medium" font-size="31.3" fill="#838686" transform="matrix(1.00, 0.00, -0.00, -1.00, 151.7, 514.0)">t</text><text xml:space="preserve" font-family="AvenirNext-Medium" font-size="31.3" fill="#838686" transform="matrix(1.00, 0.00, -0.00, -1.00, 162.0, 514.0)">h</text><text xml:space="preserve" font-family="AvenirNext-Medium" font-size="31.3" fill="#838686" transform="matrix(1.00, 0.00, -0.00, -1.00, 180.3, 514.0)">i</text><text xml:space="preserve" font-family="AvenirNext-Medium" font-size="31.3" fill="#838686" transform="matrix(1.00, 0.00, -0.00, -1.00, 188.4, 514.0)">s</text><text xml:space="preserve" font-family="AvenirNext-Medium" font-size="31.3" fill="#838686" transform="matrix(1.00, 0.00, -0.00, -1.00, 202.3, 514.0)"> </text><text xml:space="preserve" font-family="AvenirNext-Medium" font-size="31.3" fill="#838686" transform="matrix(1.00, 0.00, -0.00, -1.00, 210.1, 514.0)">i</text><text xml:space="preserve" font-family="AvenirNext-Medium" font-size="31.3" fill="#838686" transform="matrix(1.00, 0.00, -0.00, -1.00, 218.2, 514.0)">n</text><text xml:space="preserve" font-family="AvenirNext-Medium" font-size="31.3" fill="#838686" transform="matrix(1.00, 0.00, -0.00, -1.00, 236.4, 514.0)">t</text><text xml:space="preserve" font-family="AvenirNext-Medium" font-size="31.3" fill="#838686" transform="matrix(1.00, 0.00, -0.00, -1.00, 246.7, 514.0)">o</text><text xml:space="preserve" font-family="AvenirNext-Medium" font-size="31.3" fill="#838686" transform="matrix(1.00, 0.00, -0.00, -1.00, 265.8, 514.0)"> </text><text xml:space="preserve" font-family="AvenirNext-Medium" font-size="31.3" fill="#838686" transform="matrix(1.00, 0.00, -0.00, -1.00, 273.6, 514.0)">t</text><text xml:space="preserve" font-family="AvenirNext-Medium" font-size="31.3" fill="#838686" transform="matrix(1.00, 0.00, -0.00, -1.00, 283.9, 514.0)">h</text><text xml:space="preserve" font-family="AvenirNext-Medium" font-size="31.3" fill="#838686" transform="matrix(1.00, 0.00, -0.00, -1.00, 302.2, 514.0)">e</text><text xml:space="preserve" font-family="AvenirNext-Medium" font-size="31.3" fill="#838686" transform="matrix(1.00, 0.00, -0.00, -1.00, 320.1, 514.0)"> </text><text xml:space="preserve" font-family="AvenirNext-Medium" font-size="31.3" fill="#838686" transform="matrix(1.00, 0.00, -0.00, -1.00, 327.9, 514.0)">t</text><text xml:space="preserve" font-family="AvenirNext-Medium" font-size="31.3" fill="#838686" transform="matrix(1.00, 0.00, -0.00, -1.00, 338.2, 514.0)">o</text><text xml:space="preserve" font-family="AvenirNext-Medium" font-size="31.3" fill="#838686" transform="matrix(1.00, 0.00, -0.00, -1.00, 357.3, 514.0)">p</text><text xml:space="preserve" font-family="AvenirNext-Medium" font-size="31.3" fill="#838686" transform="matrix(1.00, 0.00, -0.00, -1.00, 377.1, 514.0)"> </text><text xml:space="preserve" font-family="AvenirNext-Medium" font-size="31.3" fill="#838686" transform="matrix(1.00, 0.00, -0.00, -1.00, 384.9, 514.0)">o</text><text xml:space="preserve" font-family="AvenirNext-Medium" font-size="31.3" fill="#838686" transform="matrix(1.00, 0.00, -0.00, -1.00, 404.0, 514.0)">f</text><text xml:space="preserve" font-family="AvenirNext-Medium" font-size="31.3" fill="#838686" transform="matrix(1.00, 0.00, -0.00, -1.00, 414.5, 514.0)"> </text><text xml:space="preserve" font-family="AvenirNext-Medium" font-size="31.3" fill="#838686" transform="matrix(1.00, 0.00, -0.00, -1.00, 422.3, 514.0)">y</text><text xml:space="preserve" font-family="AvenirNext-Medium" font-size="31.3" fill="#838686" transform="matrix(1.00, 0.00, -0.00, -1.00, 438.0, 514.0)">o</text><text xml:space="preserve" font-family="AvenirNext-Medium" font-size="31.3" fill="#838686" transform="matrix(1.00, 0.00, -0.00, -1.00, 457.1, 514.0)">u</text><text xml:space="preserve" font-family="AvenirNext-Medium" font-size="31.3" fill="#838686" transform="matrix(1.00, 0.00, -0.00, -1.00, 475.3, 514.0)">r</text><text xml:space="preserve" font-family="AvenirNext-Medium" font-size="31.3" fill="#838686" transform="matrix(1.00, 0.00, -0.00, -1.00, 486.7, 514.0)"> </text><text xml:space="preserve" font-family="AvenirNext-Medium" font-size="31.3" fill="#838686" transform="matrix(1.00, 0.00, -0.00, -1.00, 494.5, 514.0)">e</text><text xml:space="preserve" font-family="AvenirNext-Medium" font-size="31.3" fill="#838686" transform="matrix(1.00, 0.00, -0.00, -1.00, 512.4, 514.0)">m</text><text xml:space="preserve" font-family="AvenirNext-Medium" font-size="31.3" fill="#838686" transform="matrix(1.00, 0.00, -0.00, -1.00, 540.1, 514.0)">p</text><text xml:space="preserve" font-family="AvenirNext-Medium" font-size="31.3" fill="#838686" transform="matrix(1.00, 0.00, -0.00, -1.00, 560.0, 514.0)">t</text><text xml:space="preserve" font-family="AvenirNext-Medium" font-size="31.3" fill="#838686" transform="matrix(1.00, 0.00, -0.00, -1.00, 570.3, 514.0)">y</text><text xml:space="preserve" font-family="AvenirNext-Medium" font-size="31.3" fill="#838686" transform="matrix(1.00, 0.00, -0.00, -1.00, 586.0, 514.0)"> </text><text xml:space="preserve" font-family="AvenirNext-Medium" font-size="31.3" fill="#838686" transform="matrix(1.00, 0.00, -0.00, -1.00, 593.8, 514.0)">b</text><text xml:space="preserve" font-family="AvenirNext-Medium" font-size="31.3" fill="#838686" transform="matrix(1.00, 0.00, -0.00, -1.00, 613.7, 514.0)">l</text><text xml:space="preserve" font-family="AvenirNext-Medium" font-size="31.3" fill="#838686" transform="matrix(1.00, 0.00, -0.00, -1.00, 621.9, 514.0)">o</text><text xml:space="preserve" font-family="AvenirNext-Medium" font-size="31.3" fill="#838686" transform="matrix(1.00, 0.00, -0.00, -1.00, 641.0, 514.0)">g</text><text xml:space="preserve" font-family="AvenirNext-Medium" font-size="31.3" fill="#838686" transform="matrix(1.00, 0.00, -0.00, -1.00, 660.7, 514.0)"> </text><text xml:space="preserve" font-family="AvenirNext-Medium" font-size="31.3" fill="#838686" transform="matrix(1.00, 0.00, -0.00, -1.00, 668.5, 514.0)">p</text><text xml:space="preserve" font-family="AvenirNext-Medium" font-size="31.3" fill="#838686" transform="matrix(1.00, 0.00, -0.00, -1.00, 688.4, 514.0)">o</text><text xml:space="preserve" font-family="AvenirNext-Medium" font-size="31.3" fill="#838686" transform="matrix(1.00, 0.00, -0.00, -1.00, 707.5, 514.0)">s</text><text xml:space="preserve" font-family="AvenirNext-Medium" font-size="31.3" fill="#838686" transform="matrix(1.00, 0.00, -0.00, -1.00, 721.3, 514.0)">t</text><text xml:space="preserve" font-family="AvenirNext-Medium" font-size="31.3" fill="#838686" transform="matrix(1.00, 0.00, -0.00, -1.00, 731.6, 514.0)"> </text><text xml:space="preserve" font-family="AvenirNext-Medium" font-size="31.3" fill="#838686" transform="matrix(1.00, 0.00, -0.00, -1.00, 739.5, 514.0)">ﬁ</text><text xml:space="preserve" font-family="AvenirNext-Medium" font-size="31.3" fill="#838686" transform="matrix(1.00, 0.00, -0.00, -1.00, 757.4, 514.0)">l</text><text xml:space="preserve" font-family="AvenirNext-Medium" font-size="31.3" fill="#838686" transform="matrix(1.00, 0.00, -0.00, -1.00, 765.5, 514.0)">e</text><text xml:space="preserve" font-family="AvenirNext-Medium" font-size="31.3" fill="#838686" transform="matrix(1.00, 0.00, -0.00, -1.00, 783.5, 514.0)">.</text><text xml:space="preserve" font-family="AvenirNext-Medium" font-size="31.3" fill="#838686" transform="matrix(1.00, 0.00, -0.00, -1.00, 790.7, 514.0)"> </text><text xml:space="preserve" font-family="Monaco" font-size="27.6" fill="#919191" transform="matrix(1.00, 0.00, -0.00, -1.00, 36.0, 449.0)">-</text><text xml:space="preserve" font-family="Monaco" font-size="27.6" fill="#919191" transform="matrix(1.00, 0.00, -0.00, -1.00, 52.6, 449.0)">-</text><text xml:space="preserve" font-family="Monaco" font-size="27.6" fill="#919191" transform="matrix(1.00, 0.00, -0.00, -1.00, 69.1, 449.0)">-</text><text xml:space="preserve" font-family="Monaco" font-size="27.6" fill="#323343" transform="matrix(1.00, 0.00, -0.00, -1.00, 36.0, 412.0)">l</text><text xml:space="preserve" font-family="Monaco" font-size="27.6" fill="#323343" transform="matrix(1.00, 0.00, -0.00, -1.00, 52.6, 412.0)">a</text><text xml:space="preserve" font-family="Monaco" font-size="27.6" fill="#323343" transform="matrix(1.00, 0.00, -0.00, -1.00, 69.1, 412.0)">y</text><text xml:space="preserve" font-family="Monaco" font-size="27.6" fill="#323343" transform="matrix(1.00, 0.00, -0.00, -1.00, 85.7, 412.0)">o</text><text xml:space="preserve" font-family="Monaco" font-size="27.6" fill="#323343" transform="matrix(1.00, 0.00, -0.00, -1.00, 102.3, 412.0)">u</text><text xml:space="preserve" font-family="Monaco" font-size="27.6" fill="#323343" transform="matrix(1.00, 0.00, -0.00, -1.00, 118.8, 412.0)">t</text><text xml:space="preserve" font-family="Monaco" font-size="27.6" fill="#FF5600" transform="matrix(1.00, 0.00, -0.00, -1.00, 135.4, 412.0)">:</text><text xml:space="preserve" font-family="Monaco" font-size="27.6" fill="#323343" transform="matrix(1.00, 0.00, -0.00, -1.00, 151.9, 412.0)"> </text><text xml:space="preserve" font-family="Monaco" font-size="27.6" fill="#323343" transform="matrix(1.00, 0.00, -0.00, -1.00, 168.5, 412.0)">p</text><text xml:space="preserve" font-family="Monaco" font-size="27.6" fill="#323343" transform="matrix(1.00, 0.00, -0.00, -1.00, 185.1, 412.0)">o</text><text xml:space="preserve" font-family="Monaco" font-size="27.6" fill="#323343" transform="matrix(1.00, 0.00, -0.00, -1.00, 201.6, 412.0)">s</text><text xml:space="preserve" font-family="Monaco" font-size="27.6" fill="#323343" transform="matrix(1.00, 0.00, -0.00, -1.00, 218.2, 412.0)">t</text><text xml:space="preserve" font-family="Monaco" font-size="27.6" fill="#323343" transform="matrix(1.00, 0.00, -0.00, -1.00, 36.0, 375.0)">t</text><text xml:space="preserve" font-family="Monaco" font-size="27.6" fill="#323343" transform="matrix(1.00, 0.00, -0.00, -1.00, 52.6, 375.0)">i</text><text xml:space="preserve" font-family="Monaco" font-size="27.6" fill="#323343" transform="matrix(1.00, 0.00, -0.00, -1.00, 69.1, 375.0)">t</text><text xml:space="preserve" font-family="Monaco" font-size="27.6" fill="#323343" transform="matrix(1.00, 0.00, -0.00, -1.00, 85.7, 375.0)">l</text><text xml:space="preserve" font-family="Monaco" font-size="27.6" fill="#323343" transform="matrix(1.00, 0.00, -0.00, -1.00, 102.3, 375.0)">e</text><text xml:space="preserve" font-family="Monaco" font-size="27.6" fill="#FF5600" transform="matrix(1.00, 0.00, -0.00, -1.00, 118.8, 375.0)">:</text><text xml:space="preserve" font-family="Monaco" font-size="27.6" fill="#323343" transform="matrix(1.00, 0.00, -0.00, -1.00, 135.4, 375.0)"> </text><text xml:space="preserve" font-family="Monaco" font-size="27.6" fill="#323343" transform="matrix(1.00, 0.00, -0.00, -1.00, 151.9, 375.0)"> </text><text xml:space="preserve" font-family="Monaco" font-size="27.6" fill="#01A33E" transform="matrix(1.00, 0.00, -0.00, -1.00, 168.5, 375.0)">"</text><text xml:space="preserve" font-family="Monaco" font-size="27.6" fill="#01A33E" transform="matrix(1.00, 0.00, -0.00, -1.00, 185.1, 375.0)">W</text><text xml:space="preserve" font-family="Monaco" font-size="27.6" fill="#01A33E" transform="matrix(1.00, 0.00, -0.00, -1.00, 201.6, 375.0)">e</text><text xml:space="preserve" font-family="Monaco" font-size="27.6" fill="#01A33E" transform="matrix(1.00, 0.00, -0.00, -1.00, 218.2, 375.0)">l</text><text xml:space="preserve" font-family="Monaco" font-size="27.6" fill="#01A33E" transform="matrix(1.00, 0.00, -0.00, -1.00, 234.8, 375.0)">c</text><text xml:space="preserve" font-family="Monaco" font-size="27.6" fill="#01A33E" transform="matrix(1.00, 0.00, -0.00, -1.00, 251.3, 375.0)">o</text><text xml:space="preserve" font-family="Monaco" font-size="27.6" fill="#01A33E" transform="matrix(1.00, 0.00, -0.00, -1.00, 267.9, 375.0)">m</text><text xml:space="preserve" font-family="Monaco" font-size="27.6" fill="#01A33E" transform="matrix(1.00, 0.00, -0.00, -1.00, 284.5, 375.0)">e</text><text xml:space="preserve" font-family="Monaco" font-size="27.6" fill="#01A33E" transform="matrix(1.00, 0.00, -0.00, -1.00, 301.0, 375.0)"> </text><text xml:space="preserve" font-family="Monaco" font-size="27.6" fill="#01A33E" transform="matrix(1.00, 0.00, -0.00, -1.00, 317.6, 375.0)">t</text><text xml:space="preserve" font-family="Monaco" font-size="27.6" fill="#01A33E" transform="matrix(1.00, 0.00, -0.00, -1.00, 334.2, 375.0)">o</text><text xml:space="preserve" font-family="Monaco" font-size="27.6" fill="#01A33E" transform="matrix(1.00, 0.00, -0.00, -1.00, 350.7, 375.0)"> </text><text xml:space="preserve" font-family="Monaco" font-size="27.6" fill="#01A33E" transform="matrix(1.00, 0.00, -0.00, -1.00, 367.3, 375.0)">d</text><text xml:space="preserve" font-family="Monaco" font-size="27.6" fill="#01A33E" transform="matrix(1.00, 0.00, -0.00, -1.00, 383.9, 375.0)">a</text><text xml:space="preserve" font-family="Monaco" font-size="27.6" fill="#01A33E" transform="matrix(1.00, 0.00, -0.00, -1.00, 400.4, 375.0)">c</text><text xml:space="preserve" font-family="Monaco" font-size="27.6" fill="#01A33E" transform="matrix(1.00, 0.00, -0.00, -1.00, 417.0, 375.0)">t</text><text xml:space="preserve" font-family="Monaco" font-size="27.6" fill="#01A33E" transform="matrix(1.00, 0.00, -0.00, -1.00, 433.5, 375.0)">l</text><text xml:space="preserve" font-family="Monaco" font-size="27.6" fill="#01A33E" transform="matrix(1.00, 0.00, -0.00, -1.00, 450.1, 375.0)">!</text><text xml:space="preserve" font-family="Monaco" font-size="27.6" fill="#01A33E" transform="matrix(1.00, 0.00, -0.00, -1.00, 466.7, 375.0)">"</text><text xml:space="preserve" font-family="Monaco" font-size="27.6" fill="#323343" transform="matrix(1.00, 0.00, -0.00, -1.00, 36.0, 338.0)">t</text><text xml:space="preserve" font-family="Monaco" font-size="27.6" fill="#323343" transform="matrix(1.00, 0.00, -0.00, -1.00, 52.6, 338.0)">a</text><text xml:space="preserve" font-family="Monaco" font-size="27.6" fill="#323343" transform="matrix(1.00, 0.00, -0.00, -1.00, 69.1, 338.0)">g</text><text xml:space="preserve" font-family="Monaco" font-size="27.6" fill="#323343" transform="matrix(1.00, 0.00, -0.00, -1.00, 85.7, 338.0)">s</text><text xml:space="preserve" font-family="Monaco" font-size="27.6" fill="#FF5600" transform="matrix(1.00, 0.00, -0.00, -1.00, 102.3, 338.0)">:</text><text xml:space="preserve" font-family="Monaco" font-size="27.6" fill="#323343" transform="matrix(1.00, 0.00, -0.00, -1.00, 36.0, 301.0)"> </text><text xml:space="preserve" font-family="Monaco" font-size="27.6" fill="#323343" transform="matrix(1.00, 0.00, -0.00, -1.00, 52.6, 301.0)"> </text><text xml:space="preserve" font-family="Monaco" font-size="27.6" fill="#FF5600" transform="matrix(1.00, 0.00, -0.00, -1.00, 69.1, 301.0)">-</text><text xml:space="preserve" font-family="Monaco" font-size="27.6" fill="#323343" transform="matrix(1.00, 0.00, -0.00, -1.00, 85.7, 301.0)"> </text><text xml:space="preserve" font-family="Monaco" font-size="27.6" fill="#323343" transform="matrix(1.00, 0.00, -0.00, -1.00, 102.3, 301.0)">d</text><text xml:space="preserve" font-family="Monaco" font-size="27.6" fill="#323343" transform="matrix(1.00, 0.00, -0.00, -1.00, 118.8, 301.0)">a</text><text xml:space="preserve" font-family="Monaco" font-size="27.6" fill="#323343" transform="matrix(1.00, 0.00, -0.00, -1.00, 135.4, 301.0)">c</text><text xml:space="preserve" font-family="Monaco" font-size="27.6" fill="#323343" transform="matrix(1.00, 0.00, -0.00, -1.00, 151.9, 301.0)">t</text><text xml:space="preserve" font-family="Monaco" font-size="27.6" fill="#323343" transform="matrix(1.00, 0.00, -0.00, -1.00, 168.5, 301.0)">l</text><text xml:space="preserve" font-family="Monaco" font-size="27.6" fill="#323343" transform="matrix(1.00, 0.00, -0.00, -1.00, 36.0, 264.0)"> </text><text xml:space="preserve" font-family="Monaco" font-size="27.6" fill="#323343" transform="matrix(1.00, 0.00, -0.00, -1.00, 52.6, 264.0)"> </text><text xml:space="preserve" font-family="Monaco" font-size="27.6" fill="#FF5600" transform="matrix(1.00, 0.00, -0.00, -1.00, 69.1, 264.0)">-</text><text xml:space="preserve" font-family="Monaco" font-size="27.6" fill="#323343" transform="matrix(1.00, 0.00, -0.00, -1.00, 85.7, 264.0)"> </text><text xml:space="preserve" font-family="Monaco" font-size="27.6" fill="#323343" transform="matrix(1.00, 0.00, -0.00, -1.00, 102.3, 264.0)">j</text><text xml:space="preserve" font-family="Monaco" font-size="27.6" fill="#323343" transform="matrix(1.00, 0.00, -0.00, -1.00, 118.8, 264.0)">e</text><text xml:space="preserve" font-family="Monaco" font-size="27.6" fill="#323343" transform="matrix(1.00, 0.00, -0.00, -1.00, 135.4, 264.0)">k</text><text xml:space="preserve" font-family="Monaco" font-size="27.6" fill="#323343" transform="matrix(1.00, 0.00, -0.00, -1.00, 151.9, 264.0)">y</text><text xml:space="preserve" font-family="Monaco" font-size="27.6" fill="#323343" transform="matrix(1.00, 0.00, -0.00, -1.00, 168.5, 264.0)">l</text><text xml:space="preserve" font-family="Monaco" font-size="27.6" fill="#323343" transform="matrix(1.00, 0.00, -0.00, -1.00, 185.1, 264.0)">l</text><text xml:space="preserve" font-family="Monaco" font-size="27.6" fill="#323343" transform="matrix(1.00, 0.00, -0.00, -1.00, 36.0, 227.0)">h</text><text xml:space="preserve" font-family="Monaco" font-size="27.6" fill="#323343" transform="matrix(1.00, 0.00, -0.00, -1.00, 52.6, 227.0)">e</text><text xml:space="preserve" font-family="Monaco" font-size="27.6" fill="#323343" transform="matrix(1.00, 0.00, -0.00, -1.00, 69.1, 227.0)">r</text><text xml:space="preserve" font-family="Monaco" font-size="27.6" fill="#323343" transform="matrix(1.00, 0.00, -0.00, -1.00, 85.7, 227.0)">o</text><text xml:space="preserve" font-family="Monaco" font-size="27.6" fill="#FF5600" transform="matrix(1.00, 0.00, -0.00, -1.00, 102.3, 227.0)">:</text><text xml:space="preserve" font-family="Monaco" font-size="27.6" fill="#323343" transform="matrix(1.00, 0.00, -0.00, -1.00, 118.8, 227.0)"> </text><text xml:space="preserve" font-family="Monaco" font-size="27.6" fill="#323343" transform="matrix(1.00, 0.00, -0.00, -1.00, 135.4, 227.0)">h</text><text xml:space="preserve" font-family="Monaco" font-size="27.6" fill="#323343" transform="matrix(1.00, 0.00, -0.00, -1.00, 151.9, 227.0)">t</text><text xml:space="preserve" font-family="Monaco" font-size="27.6" fill="#323343" transform="matrix(1.00, 0.00, -0.00, -1.00, 168.5, 227.0)">t</text><text xml:space="preserve" font-family="Monaco" font-size="27.6" fill="#323343" transform="matrix(1.00, 0.00, -0.00, -1.00, 185.1, 227.0)">p</text><text xml:space="preserve" font-family="Monaco" font-size="27.6" fill="#323343" transform="matrix(1.00, 0.00, -0.00, -1.00, 201.6, 227.0)">s</text><text xml:space="preserve" font-family="Monaco" font-size="27.6" fill="#FF5600" transform="matrix(1.00, 0.00, -0.00, -1.00, 218.2, 227.0)">:</text><text xml:space="preserve" font-family="Monaco" font-size="27.6" fill="#FF5600" transform="matrix(1.00, 0.00, -0.00, -1.00, 234.8, 227.0)">/</text><text xml:space="preserve" font-family="Monaco" font-size="27.6" fill="#FF5600" transform="matrix(1.00, 0.00, -0.00, -1.00, 251.3, 227.0)">/</text><text xml:space="preserve" font-family="Monaco" font-size="27.6" fill="#323343" transform="matrix(1.00, 0.00, -0.00, -1.00, 267.9, 227.0)">s</text><text xml:space="preserve" font-family="Monaco" font-size="27.6" fill="#323343" transform="matrix(1.00, 0.00, -0.00, -1.00, 284.4, 227.0)">o</text><text xml:space="preserve" font-family="Monaco" font-size="27.6" fill="#323343" transform="matrix(1.00, 0.00, -0.00, -1.00, 301.0, 227.0)">u</text><text xml:space="preserve" font-family="Monaco" font-size="27.6" fill="#323343" transform="matrix(1.00, 0.00, -0.00, -1.00, 317.6, 227.0)">r</text><text xml:space="preserve" font-family="Monaco" font-size="27.6" fill="#323343" transform="matrix(1.00, 0.00, -0.00, -1.00, 334.1, 227.0)">c</text><text xml:space="preserve" font-family="Monaco" font-size="27.6" fill="#323343" transform="matrix(1.00, 0.00, -0.00, -1.00, 350.7, 227.0)">e</text><text xml:space="preserve" font-family="Monaco" font-size="27.6" fill="#FF5600" transform="matrix(1.00, 0.00, -0.00, -1.00, 367.3, 227.0)">.</text><text xml:space="preserve" font-family="Monaco" font-size="27.6" fill="#323343" transform="matrix(1.00, 0.00, -0.00, -1.00, 383.8, 227.0)">u</text><text xml:space="preserve" font-family="Monaco" font-size="27.6" fill="#323343" transform="matrix(1.00, 0.00, -0.00, -1.00, 400.4, 227.0)">n</text><text xml:space="preserve" font-family="Monaco" font-size="27.6" fill="#323343" transform="matrix(1.00, 0.00, -0.00, -1.00, 416.9, 227.0)">s</text><text xml:space="preserve" font-family="Monaco" font-size="27.6" fill="#323343" transform="matrix(1.00, 0.00, -0.00, -1.00, 433.5, 227.0)">p</text><text xml:space="preserve" font-family="Monaco" font-size="27.6" fill="#323343" transform="matrix(1.00, 0.00, -0.00, -1.00, 450.1, 227.0)">l</text><text xml:space="preserve" font-family="Monaco" font-size="27.6" fill="#323343" transform="matrix(1.00, 0.00, -0.00, -1.00, 466.6, 227.0)">a</text><text xml:space="preserve" font-family="Monaco" font-size="27.6" fill="#323343" transform="matrix(1.00, 0.00, -0.00, -1.00, 483.2, 227.0)">s</text><text xml:space="preserve" font-family="Monaco" font-size="27.6" fill="#323343" transform="matrix(1.00, 0.00, -0.00, -1.00, 499.8, 227.0)">h</text><text xml:space="preserve" font-family="Monaco" font-size="27.6" fill="#FF5600" transform="matrix(1.00, 0.00, -0.00, -1.00, 516.3, 227.0)">.</text><text xml:space="preserve" font-family="Monaco" font-size="27.6" fill="#323343" transform="matrix(1.00, 0.00, -0.00, -1.00, 532.9, 227.0)">c</text><text xml:space="preserve" font-family="Monaco" font-size="27.6" fill="#323343" transform="matrix(1.00, 0.00, -0.00, -1.00, 549.4, 227.0)">o</text><text xml:space="preserve" font-family="Monaco" font-size="27.6" fill="#323343" transform="matrix(1.00, 0.00, -0.00, -1.00, 566.0, 227.0)">m</text><text xml:space="preserve" font-family="Monaco" font-size="27.6" fill="#FF5600" transform="matrix(1.00, 0.00, -0.00, -1.00, 582.6, 227.0)">/</text><text xml:space="preserve" font-family="Monaco" font-size="27.6" fill="#323343" transform="matrix(1.00, 0.00, -0.00, -1.00, 599.1, 227.0)">c</text><text xml:space="preserve" font-family="Monaco" font-size="27.6" fill="#323343" transform="matrix(1.00, 0.00, -0.00, -1.00, 615.7, 227.0)">o</text><text xml:space="preserve" font-family="Monaco" font-size="27.6" fill="#323343" transform="matrix(1.00, 0.00, -0.00, -1.00, 632.3, 227.0)">l</text><text xml:space="preserve" font-family="Monaco" font-size="27.6" fill="#323343" transform="matrix(1.00, 0.00, -0.00, -1.00, 648.8, 227.0)">l</text><text xml:space="preserve" font-family="Monaco" font-size="27.6" fill="#323343" transform="matrix(1.00, 0.00, -0.00, -1.00, 665.4, 227.0)">e</text><text xml:space="preserve" font-family="Monaco" font-size="27.6" fill="#323343" transform="matrix(1.00, 0.00, -0.00, -1.00, 682.0, 227.0)">c</text><text xml:space="preserve" font-family="Monaco" font-size="27.6" fill="#323343" transform="matrix(1.00, 0.00, -0.00, -1.00, 698.5, 227.0)">t</text><text xml:space="preserve" font-family="Monaco" font-size="27.6" fill="#323343" transform="matrix(1.00, 0.00, -0.00, -1.00, 715.1, 227.0)">i</text><text xml:space="preserve" font-family="Monaco" font-size="27.6" fill="#323343" transform="matrix(1.00, 0.00, -0.00, -1.00, 731.7, 227.0)">o</text><text xml:space="preserve" font-family="Monaco" font-size="27.6" fill="#323343" transform="matrix(1.00, 0.00, -0.00, -1.00, 748.2, 227.0)">n</text><text xml:space="preserve" font-family="Monaco" font-size="27.6" fill="#FF5600" transform="matrix(1.00, 0.00, -0.00, -1.00, 764.8, 227.0)">/</text><text xml:space="preserve" font-family="Monaco" font-size="27.6" fill="#323343" transform="matrix(1.00, 0.00, -0.00, -1.00, 781.3, 227.0)">4</text><text xml:space="preserve" font-family="Monaco" font-size="27.6" fill="#323343" transform="matrix(1.00, 0.00, -0.00, -1.00, 797.9, 227.0)">3</text><text xml:space="preserve" font-family="Monaco" font-size="27.6" fill="#323343" transform="matrix(1.00, 0.00, -0.00, -1.00, 814.5, 227.0)">0</text><text xml:space="preserve" font-family="Monaco" font-size="27.6" fill="#323343" transform="matrix(1.00, 0.00, -0.00, -1.00, 831.0, 227.0)">4</text><text xml:space="preserve" font-family="Monaco" font-size="27.6" fill="#323343" transform="matrix(1.00, 0.00, -0.00, -1.00, 847.6, 227.0)">7</text><text xml:space="preserve" font-family="Monaco" font-size="27.6" fill="#323343" transform="matrix(1.00, 0.00, -0.00, -1.00, 864.1, 227.0)">1</text><text xml:space="preserve" font-family="Monaco" font-size="27.6" fill="#FF5600" transform="matrix(1.00, 0.00, -0.00, -1.00, 880.7, 227.0)">/</text><text xml:space="preserve" font-family="Monaco" font-size="27.6" fill="#323343" transform="matrix(1.00, 0.00, -0.00, -1.00, 36.0, 190.0)">o</text><text xml:space="preserve" font-family="Monaco" font-size="27.6" fill="#323343" transform="matrix(1.00, 0.00, -0.00, -1.00, 52.6, 190.0)">v</text><text xml:space="preserve" font-family="Monaco" font-size="27.6" fill="#323343" transform="matrix(1.00, 0.00, -0.00, -1.00, 69.1, 190.0)">e</text><text xml:space="preserve" font-family="Monaco" font-size="27.6" fill="#323343" transform="matrix(1.00, 0.00, -0.00, -1.00, 85.7, 190.0)">r</text><text xml:space="preserve" font-family="Monaco" font-size="27.6" fill="#323343" transform="matrix(1.00, 0.00, -0.00, -1.00, 102.3, 190.0)">l</text><text xml:space="preserve" font-family="Monaco" font-size="27.6" fill="#323343" transform="matrix(1.00, 0.00, -0.00, -1.00, 118.8, 190.0)">a</text><text xml:space="preserve" font-family="Monaco" font-size="27.6" fill="#323343" transform="matrix(1.00, 0.00, -0.00, -1.00, 135.4, 190.0)">y</text><text xml:space="preserve" font-family="Monaco" font-size="27.6" fill="#FF5600" transform="matrix(1.00, 0.00, -0.00, -1.00, 151.9, 190.0)">:</text><text xml:space="preserve" font-family="Monaco" font-size="27.6" fill="#323343" transform="matrix(1.00, 0.00, -0.00, -1.00, 168.5, 190.0)"> </text><text xml:space="preserve" font-family="Monaco" font-size="27.6" fill="#323343" transform="matrix(1.00, 0.00, -0.00, -1.00, 185.1, 190.0)">r</text><text xml:space="preserve" font-family="Monaco" font-size="27.6" fill="#323343" transform="matrix(1.00, 0.00, -0.00, -1.00, 201.6, 190.0)">e</text><text xml:space="preserve" font-family="Monaco" font-size="27.6" fill="#323343" transform="matrix(1.00, 0.00, -0.00, -1.00, 218.2, 190.0)">d</text><text xml:space="preserve" font-family="Monaco" font-size="27.6" fill="#323343" transform="matrix(1.00, 0.00, -0.00, -1.00, 36.0, 153.0)">p</text><text xml:space="preserve" font-family="Monaco" font-size="27.6" fill="#323343" transform="matrix(1.00, 0.00, -0.00, -1.00, 52.6, 153.0)">u</text><text xml:space="preserve" font-family="Monaco" font-size="27.6" fill="#323343" transform="matrix(1.00, 0.00, -0.00, -1.00, 69.1, 153.0)">b</text><text xml:space="preserve" font-family="Monaco" font-size="27.6" fill="#323343" transform="matrix(1.00, 0.00, -0.00, -1.00, 85.7, 153.0)">l</text><text xml:space="preserve" font-family="Monaco" font-size="27.6" fill="#323343" transform="matrix(1.00, 0.00, -0.00, -1.00, 102.3, 153.0)">i</text><text xml:space="preserve" font-family="Monaco" font-size="27.6" fill="#323343" transform="matrix(1.00, 0.00, -0.00, -1.00, 118.8, 153.0)">s</text><text xml:space="preserve" font-family="Monaco" font-size="27.6" fill="#323343" transform="matrix(1.00, 0.00, -0.00, -1.00, 135.4, 153.0)">h</text><text xml:space="preserve" font-family="Monaco" font-size="27.6" fill="#323343" transform="matrix(1.00, 0.00, -0.00, -1.00, 152.0, 153.0)">e</text><text xml:space="preserve" font-family="Monaco" font-size="27.6" fill="#323343" transform="matrix(1.00, 0.00, -0.00, -1.00, 168.5, 153.0)">d</text><text xml:space="preserve" font-family="Monaco" font-size="27.6" fill="#FF5600" transform="matrix(1.00, 0.00, -0.00, -1.00, 185.1, 153.0)">:</text><text xml:space="preserve" font-family="Monaco" font-size="27.6" fill="#323343" transform="matrix(1.00, 0.00, -0.00, -1.00, 201.6, 153.0)"> </text><text xml:space="preserve" font-family="Monaco" font-size="27.6" fill="#323343" transform="matrix(1.00, 0.00, -0.00, -1.00, 218.2, 153.0)">t</text><text xml:space="preserve" font-family="Monaco" font-size="27.6" fill="#323343" transform="matrix(1.00, 0.00, -0.00, -1.00, 234.8, 153.0)">r</text><text xml:space="preserve" font-family="Monaco" font-size="27.6" fill="#323343" transform="matrix(1.00, 0.00, -0.00, -1.00, 251.3, 153.0)">u</text><text xml:space="preserve" font-family="Monaco" font-size="27.6" fill="#323343" transform="matrix(1.00, 0.00, -0.00, -1.00, 267.9, 153.0)">e</text><text xml:space="preserve" font-family="Monaco" font-size="27.6" fill="#919191" transform="matrix(1.00, 0.00, -0.00, -1.00, 36.0, 79.0)">-</text><text xml:space="preserve" font-family="Monaco" font-size="27.6" fill="#919191" transform="matrix(1.00, 0.00, -0.00, -1.00, 52.6, 79.0)">-</text><text xml:space="preserve" font-family="Monaco" font-size="27.6" fill="#919191" transform="matrix(1.00, 0.00, -0.00, -1.00, 69.1, 79.0)">-</text><text xml:space="preserve" font-family="DINAlternate-Bold" font-weight="bold" font-size="24.0" fill="#838686" transform="matrix(1.00, 0.00, -0.00, -1.00, 964.6, 707.4)">3</text><text xml:space="preserve" font-family="DINAlternate-Bold" font-weight="bold" font-size="24.0" fill="#838686" transform="matrix(1.00, 0.00, -0.00, -1.00, 976.1, 707.4)">7</text><text xml:space="preserve" font-family="AvenirNext-Medium" font-size="20.0" fill="#838686" transform="matrix(1.00, 0.00, -0.00, -1.00, 708.0, 32.0)">S</text><text xml:space="preserve" font-family="AvenirNext-Medium" font-size="20.0" fill="#838686" transform="matrix(1.00, 0.00, -0.00, -1.00, 719.4, 32.0)">o</text><text xml:space="preserve" font-family="AvenirNext-Medium" font-size="20.0" fill="#838686" transform="matrix(1.00, 0.00, -0.00, -1.00, 731.6, 32.0)">u</text><text xml:space="preserve" font-family="AvenirNext-Medium" font-size="20.0" fill="#838686" transform="matrix(1.00, 0.00, -0.00, -1.00, 743.2, 32.0)">r</text><text xml:space="preserve" font-family="AvenirNext-Medium" font-size="20.0" fill="#838686" transform="matrix(1.00, 0.00, -0.00, -1.00, 750.1, 32.0)">c</text><text xml:space="preserve" font-family="AvenirNext-Medium" font-size="20.0" fill="#838686" transform="matrix(1.00, 0.00, -0.00, -1.00, 760.0, 32.0)">e</text><text xml:space="preserve" font-family="AvenirNext-Medium" font-size="20.0" fill="#838686" transform="matrix(1.00, 0.00, -0.00, -1.00, 771.4, 32.0)">:</text><text xml:space="preserve" font-family="AvenirNext-Medium" font-size="20.0" fill="#838686" transform="matrix(1.00, 0.00, -0.00, -1.00, 777.4, 32.0)"> </text><text xml:space="preserve" font-family="AvenirNext-Medium" font-size="20.0" fill="#34A4DA" transform="matrix(1.00, 0.00, -0.00, -1.00, 782.2, 32.0)">J</text><text xml:space="preserve" font-family="AvenirNext-Medium" font-size="20.0" fill="#34A4DA" transform="matrix(1.00, 0.00, -0.00, -1.00, 792.1, 32.0)">e</text><text xml:space="preserve" font-family="AvenirNext-Medium" font-size="20.0" fill="#34A4DA" transform="matrix(1.00, 0.00, -0.00, -1.00, 803.6, 32.0)">k</text><text xml:space="preserve" font-family="AvenirNext-Medium" font-size="20.0" fill="#34A4DA" transform="matrix(1.00, 0.00, -0.00, -1.00, 813.9, 32.0)">y</text><text xml:space="preserve" font-family="AvenirNext-Medium" font-size="20.0" fill="#34A4DA" transform="matrix(1.00, 0.00, -0.00, -1.00, 823.9, 32.0)">l</text><text xml:space="preserve" font-family="AvenirNext-Medium" font-size="20.0" fill="#34A4DA" transform="matrix(1.00, 0.00, -0.00, -1.00, 829.1, 32.0)">l</text><text xml:space="preserve" font-family="AvenirNext-Medium" font-size="20.0" fill="#34A4DA" transform="matrix(1.00, 0.00, -0.00, -1.00, 834.3, 32.0)"> </text><text xml:space="preserve" font-family="AvenirNext-Medium" font-size="20.0" fill="#34A4DA" transform="matrix(1.00, 0.00, -0.00, -1.00, 839.3, 32.0)">D</text><text xml:space="preserve" font-family="AvenirNext-Medium" font-size="20.0" fill="#34A4DA" transform="matrix(1.00, 0.00, -0.00, -1.00, 854.6, 32.0)">o</text><text xml:space="preserve" font-family="AvenirNext-Medium" font-size="20.0" fill="#34A4DA" transform="matrix(1.00, 0.00, -0.00, -1.00, 866.8, 32.0)">c</text><text xml:space="preserve" font-family="AvenirNext-Medium" font-size="20.0" fill="#34A4DA" transform="matrix(1.00, 0.00, -0.00, -1.00, 876.6, 32.0)">u</text><text xml:space="preserve" font-family="AvenirNext-Medium" font-size="20.0" fill="#34A4DA" transform="matrix(1.00, 0.00, -0.00, -1.00, 888.3, 32.0)">m</text><text xml:space="preserve" font-family="AvenirNext-Medium" font-size="20.0" fill="#34A4DA" transform="matrix(1.00, 0.00, -0.00, -1.00, 906.0, 32.0)">e</text><text xml:space="preserve" font-family="AvenirNext-Medium" font-size="20.0" fill="#34A4DA" transform="matrix(1.00, 0.00, -0.00, -1.00, 917.5, 32.0)">n</text><text xml:space="preserve" font-family="AvenirNext-Medium" font-size="20.0" fill="#34A4DA" transform="matrix(1.00, 0.00, -0.00, -1.00, 929.1, 32.0)">t</text><text xml:space="preserve" font-family="AvenirNext-Medium" font-size="20.0" fill="#34A4DA" transform="matrix(1.00, 0.00, -0.00, -1.00, 935.7, 32.0)">a</text><text xml:space="preserve" font-family="AvenirNext-Medium" font-size="20.0" fill="#34A4DA" transform="matrix(1.00, 0.00, -0.00, -1.00, 946.3, 32.0)">t</text><text xml:space="preserve" font-family="AvenirNext-Medium" font-size="20.0" fill="#34A4DA" transform="matrix(1.00, 0.00, -0.00, -1.00, 952.9, 32.0)">i</text><text xml:space="preserve" font-family="AvenirNext-Medium" font-size="20.0" fill="#34A4DA" transform="matrix(1.00, 0.00, -0.00, -1.00, 958.1, 32.0)">o</text><text xml:space="preserve" font-family="AvenirNext-Medium" font-size="20.0" fill="#34A4DA" transform="matrix(1.00, 0.00, -0.00, -1.00, 970.3, 32.0)">n</text><g><clipPath id="clip-98"><path d="M 781.2 28.7 L 981.9 28.7 L 981.9 31.7 L 781.2 31.7 Z M 781.2 28.7 "></path></clipPath><g clip-path="url(#clip-98)"><path d="M 78.2 25.2 L 277.9 25.2 " fill="none" stroke="#34A4DA" stroke-width="1.00" stroke-miterlimit="0.00" transform="matrix(1.00, 0.00, 0.00, -1.00, 704.0, 55.4)"></path></g></g></g></svg>