<?xml version="1.0" encoding="UTF-8" standalone="no"?><svg xmlns="http://www.w3.org/2000/svg" xmlns:xlink="http://www.w3.org/1999/xlink" clip-rule="evenodd" stroke-miterlimit="4.00" viewBox="0 0 1024 768"><desc>SVG generated by Keynote</desc><defs></defs><g transform="matrix(1.00, 0.00, -0.00, -1.00, 0.0, 768.0)"><path d="M 0.0 768.0 L 1024.0 768.0 L 1024.0 0.0 L 0.0 0.0 Z M 0.0 768.0 " fill="#EAEAEA"></path><path d="M 0.0 0.0 L 960.0 0.0 " fill="none" stroke="#A6AAA8" stroke-width="3.00" transform="matrix(1.00, 0.00, 0.00, -1.00, 32.0, 284.5)"></path><image xlink:href="../../530E9AF0-43D7-4833-AF5F-F344C0C97C42/assets/B9CBC4B32F9900C1BEC723415D448BBC.png" width="480.00" height="480.00" transform="matrix(2.13, 0.00, -0.00, -2.13, 0.0, 938.0)"></image><path d="M -2.2 382.2 L 1048.5 382.2 L 1048.5 106.6 L -2.2 106.6 Z M -2.2 382.2 " fill="#FEFFFE"></path><text xml:space="preserve" font-family="DINCondensed-Bold" font-weight="bold" font-size="107.1" fill="#34A4DA" transform="matrix(1.00, 0.00, -0.00, -1.00, 36.0, 182.0)">C</text><text xml:space="preserve" font-family="DINCondensed-Bold" font-weight="bold" font-size="107.1" fill="#34A4DA" transform="matrix(1.00, 0.00, -0.00, -1.00, 79.6, 182.0)">R</text><text xml:space="preserve" font-family="DINCondensed-Bold" font-weight="bold" font-size="107.1" fill="#34A4DA" transform="matrix(1.00, 0.00, -0.00, -1.00, 125.2, 182.0)">E</text><text xml:space="preserve" font-family="DINCondensed-Bold" font-weight="bold" font-size="107.1" fill="#34A4DA" transform="matrix(1.00, 0.00, -0.00, -1.00, 164.8, 182.0)">A</text><text xml:space="preserve" font-family="DINCondensed-Bold" font-weight="bold" font-size="107.1" fill="#34A4DA" transform="matrix(1.00, 0.00, -0.00, -1.00, 202.5, 182.0)">T</text><text xml:space="preserve" font-family="DINCondensed-Bold" font-weight="bold" font-size="107.1" fill="#34A4DA" transform="matrix(1.00, 0.00, -0.00, -1.00, 238.1, 182.0)">E</text><text xml:space="preserve" font-family="DINCondensed-Bold" font-weight="bold" font-size="107.1" fill="#34A4DA" transform="matrix(1.00, 0.00, -0.00, -1.00, 277.7, 182.0)"> </text><text xml:space="preserve" font-family="DINCondensed-Bold" font-weight="bold" font-size="107.1" fill="#34A4DA" transform="matrix(1.00, 0.00, -0.00, -1.00, 297.6, 182.0)">A</text><text xml:space="preserve" font-family="DINCondensed-Bold" font-weight="bold" font-size="107.1" fill="#34A4DA" transform="matrix(1.00, 0.00, -0.00, -1.00, 341.2, 182.0)"> </text><text xml:space="preserve" font-family="DINCondensed-Bold" font-weight="bold" font-size="107.1" fill="#34A4DA" transform="matrix(1.00, 0.00, -0.00, -1.00, 361.2, 182.0)">B</text><text xml:space="preserve" font-family="DINCondensed-Bold" font-weight="bold" font-size="107.1" fill="#34A4DA" transform="matrix(1.00, 0.00, -0.00, -1.00, 406.8, 182.0)">L</text><text xml:space="preserve" font-family="DINCondensed-Bold" font-weight="bold" font-size="107.1" fill="#34A4DA" transform="matrix(1.00, 0.00, -0.00, -1.00, 446.4, 182.0)">O</text><text xml:space="preserve" font-family="DINCondensed-Bold" font-weight="bold" font-size="107.1" fill="#34A4DA" transform="matrix(1.00, 0.00, -0.00, -1.00, 492.0, 182.0)">G</text><text xml:space="preserve" font-family="DINCondensed-Bold" font-weight="bold" font-size="107.1" fill="#34A4DA" transform="matrix(1.00, 0.00, -0.00, -1.00, 537.7, 182.0)"> </text><text xml:space="preserve" font-family="DINCondensed-Bold" font-weight="bold" font-size="107.1" fill="#34A4DA" transform="matrix(1.00, 0.00, -0.00, -1.00, 557.6, 182.0)">W</text><text xml:space="preserve" font-family="DINCondensed-Bold" font-weight="bold" font-size="107.1" fill="#34A4DA" transform="matrix(1.00, 0.00, -0.00, -1.00, 621.1, 182.0)">I</text><text xml:space="preserve" font-family="DINCondensed-Bold" font-weight="bold" font-size="107.1" fill="#34A4DA" transform="matrix(1.00, 0.00, -0.00, -1.00, 642.9, 182.0)">T</text><text xml:space="preserve" font-family="DINCondensed-Bold" font-weight="bold" font-size="107.1" fill="#34A4DA" transform="matrix(1.00, 0.00, -0.00, -1.00, 678.5, 182.0)">H</text><text xml:space="preserve" font-family="DINCondensed-Bold" font-weight="bold" font-size="107.1" fill="#34A4DA" transform="matrix(1.00, 0.00, -0.00, -1.00, 724.1, 182.0)"> </text><text xml:space="preserve" font-family="DINCondensed-Bold" font-weight="bold" font-size="107.1" fill="#34A4DA" transform="matrix(1.00, 0.00, -0.00, -1.00, 744.0, 182.0)">J</text><text xml:space="preserve" font-family="DINCondensed-Bold" font-weight="bold" font-size="107.1" fill="#34A4DA" transform="matrix(1.00, 0.00, -0.00, -1.00, 779.7, 182.0)">E</text><text xml:space="preserve" font-family="DINCondensed-Bold" font-weight="bold" font-size="107.1" fill="#34A4DA" transform="matrix(1.00, 0.00, -0.00, -1.00, 819.3, 182.0)">K</text><text xml:space="preserve" font-family="DINCondensed-Bold" font-weight="bold" font-size="107.1" fill="#34A4DA" transform="matrix(1.00, 0.00, -0.00, -1.00, 865.0, 182.0)">Y</text><text xml:space="preserve" font-family="DINCondensed-Bold" font-weight="bold" font-size="107.1" fill="#34A4DA" transform="matrix(1.00, 0.00, -0.00, -1.00, 906.5, 182.0)">L</text><text xml:space="preserve" font-family="DINCondensed-Bold" font-weight="bold" font-size="107.1" fill="#34A4DA" transform="matrix(1.00, 0.00, -0.00, -1.00, 946.1, 182.0)">L</text><text xml:space="preserve" font-family="DINAlternate-Bold" font-weight="bold" font-size="54.0" fill="#67BEB1" transform="matrix(1.00, 0.00, -0.00, -1.00, 36.0, 306.0)">C</text><text xml:space="preserve" font-family="DINAlternate-Bold" font-weight="bold" font-size="54.0" fill="#67BEB1" transform="matrix(1.00, 0.00, -0.00, -1.00, 66.0, 306.0)">O</text><text xml:space="preserve" font-family="DINAlternate-Bold" font-weight="bold" font-size="54.0" fill="#67BEB1" transform="matrix(1.00, 0.00, -0.00, -1.00, 99.0, 306.0)">D</text><text xml:space="preserve" font-family="DINAlternate-Bold" font-weight="bold" font-size="54.0" fill="#67BEB1" transform="matrix(1.00, 0.00, -0.00, -1.00, 133.0, 306.0)">E</text><text xml:space="preserve" font-family="DINAlternate-Bold" font-weight="bold" font-size="54.0" fill="#67BEB1" transform="matrix(1.00, 0.00, -0.00, -1.00, 163.0, 306.0)">L</text><text xml:space="preserve" font-family="DINAlternate-Bold" font-weight="bold" font-size="54.0" fill="#67BEB1" transform="matrix(1.00, 0.00, -0.00, -1.00, 193.1, 306.0)">A</text><text xml:space="preserve" font-family="DINAlternate-Bold" font-weight="bold" font-size="54.0" fill="#67BEB1" transform="matrix(1.00, 0.00, -0.00, -1.00, 226.0, 306.0)">N</text><text xml:space="preserve" font-family="DINAlternate-Bold" font-weight="bold" font-size="54.0" fill="#67BEB1" transform="matrix(1.00, 0.00, -0.00, -1.00, 262.9, 306.0)">D</text><text xml:space="preserve" font-family="DINAlternate-Bold" font-weight="bold" font-size="54.0" fill="#67BEB1" transform="matrix(1.00, 0.00, -0.00, -1.00, 296.9, 306.0)"> </text><text xml:space="preserve" font-family="DINAlternate-Bold" font-weight="bold" font-size="54.0" fill="#67BEB1" transform="matrix(1.00, 0.00, -0.00, -1.00, 309.9, 306.0)">2</text><text xml:space="preserve" font-family="DINAlternate-Bold" font-weight="bold" font-size="54.0" fill="#67BEB1" transform="matrix(1.00, 0.00, -0.00, -1.00, 335.8, 306.0)">0</text><text xml:space="preserve" font-family="DINAlternate-Bold" font-weight="bold" font-size="54.0" fill="#67BEB1" transform="matrix(1.00, 0.00, -0.00, -1.00, 361.7, 306.0)">1</text><text xml:space="preserve" font-family="DINAlternate-Bold" font-weight="bold" font-size="54.0" fill="#67BEB1" transform="matrix(1.00, 0.00, -0.00, -1.00, 387.6, 306.0)">8</text><text xml:space="preserve" font-family="DINAlternate-Bold" font-weight="bold" font-size="54.0" fill="#67BEB1" transform="matrix(1.00, 0.00, -0.00, -1.00, 413.6, 306.0)"> </text><text xml:space="preserve" font-family="DINAlternate-Bold" font-weight="bold" font-size="54.0" fill="#67BEB1" transform="matrix(1.00, 0.00, -0.00, -1.00, 426.5, 306.0)">|</text><text xml:space="preserve" font-family="DINAlternate-Bold" font-weight="bold" font-size="54.0" fill="#67BEB1" transform="matrix(1.00, 0.00, -0.00, -1.00, 438.5, 306.0)"> </text><text xml:space="preserve" font-family="DINAlternate-Bold" font-weight="bold" font-size="54.0" fill="#67BEB1" transform="matrix(1.00, 0.00, -0.00, -1.00, 451.4, 306.0)">B</text><text xml:space="preserve" font-family="DINAlternate-Bold" font-weight="bold" font-size="54.0" fill="#67BEB1" transform="matrix(1.00, 0.00, -0.00, -1.00, 484.3, 306.0)">Y</text><text xml:space="preserve" font-family="DINAlternate-Bold" font-weight="bold" font-size="54.0" fill="#67BEB1" transform="matrix(1.00, 0.00, -0.00, -1.00, 511.3, 306.0)"> </text><text xml:space="preserve" font-family="DINAlternate-Bold" font-weight="bold" font-size="54.0" fill="#67BEB1" transform="matrix(1.00, 0.00, -0.00, -1.00, 524.3, 306.0)">M</text><text xml:space="preserve" font-family="DINAlternate-Bold" font-weight="bold" font-size="54.0" fill="#67BEB1" transform="matrix(1.00, 0.00, -0.00, -1.00, 565.2, 306.0)">O</text><text xml:space="preserve" font-family="DINAlternate-Bold" font-weight="bold" font-size="54.0" fill="#67BEB1" transform="matrix(1.00, 0.00, -0.00, -1.00, 598.1, 306.0)">N</text><text xml:space="preserve" font-family="DINAlternate-Bold" font-weight="bold" font-size="54.0" fill="#67BEB1" transform="matrix(1.00, 0.00, -0.00, -1.00, 635.1, 306.0)">I</text><text xml:space="preserve" font-family="DINAlternate-Bold" font-weight="bold" font-size="54.0" fill="#67BEB1" transform="matrix(1.00, 0.00, -0.00, -1.00, 649.0, 306.0)">C</text><text xml:space="preserve" font-family="DINAlternate-Bold" font-weight="bold" font-size="54.0" fill="#67BEB1" transform="matrix(1.00, 0.00, -0.00, -1.00, 679.0, 306.0)">A</text><text xml:space="preserve" font-family="DINAlternate-Bold" font-weight="bold" font-size="54.0" fill="#67BEB1" transform="matrix(1.00, 0.00, -0.00, -1.00, 711.9, 306.0)"> </text><text xml:space="preserve" font-family="DINAlternate-Bold" font-weight="bold" font-size="54.0" fill="#67BEB1" transform="matrix(1.00, 0.00, -0.00, -1.00, 724.9, 306.0)">P</text><text xml:space="preserve" font-family="DINAlternate-Bold" font-weight="bold" font-size="54.0" fill="#67BEB1" transform="matrix(1.00, 0.00, -0.00, -1.00, 756.9, 306.0)">O</text><text xml:space="preserve" font-family="DINAlternate-Bold" font-weight="bold" font-size="54.0" fill="#67BEB1" transform="matrix(1.00, 0.00, -0.00, -1.00, 788.8, 306.0)">W</text><text xml:space="preserve" font-family="DINAlternate-Bold" font-weight="bold" font-size="54.0" fill="#67BEB1" transform="matrix(1.00, 0.00, -0.00, -1.00, 833.8, 306.0)">E</text><text xml:space="preserve" font-family="DINAlternate-Bold" font-weight="bold" font-size="54.0" fill="#67BEB1" transform="matrix(1.00, 0.00, -0.00, -1.00, 863.8, 306.0)">L</text><text xml:space="preserve" font-family="DINAlternate-Bold" font-weight="bold" font-size="54.0" fill="#67BEB1" transform="matrix(1.00, 0.00, -0.00, -1.00, 893.8, 306.0)">L</text></g></svg>