<?xml version="1.0" encoding="UTF-8" standalone="no"?><svg xmlns="http://www.w3.org/2000/svg" xmlns:xlink="http://www.w3.org/1999/xlink" clip-rule="evenodd" stroke-miterlimit="4.00" viewBox="0 0 946 81"><desc>SVG generated by Keynote</desc><defs></defs><g transform="matrix(1.00, 0.00, -0.00, -1.00, 0.0, 81.0)"><text xml:space="preserve" font-family="DINCondensed-Bold" font-weight="bold" font-size="107.1" fill="#34A4DA" transform="matrix(1.00, 0.00, -0.00, -1.00, -3.0, 2.0)">C</text><text xml:space="preserve" font-family="DINCondensed-Bold" font-weight="bold" font-size="107.1" fill="#34A4DA" transform="matrix(1.00, 0.00, -0.00, -1.00, 40.6, 2.0)">R</text><text xml:space="preserve" font-family="DINCondensed-Bold" font-weight="bold" font-size="107.1" fill="#34A4DA" transform="matrix(1.00, 0.00, -0.00, -1.00, 86.2, 2.0)">E</text><text xml:space="preserve" font-family="DINCondensed-Bold" font-weight="bold" font-size="107.1" fill="#34A4DA" transform="matrix(1.00, 0.00, -0.00, -1.00, 125.8, 2.0)">A</text><text xml:space="preserve" font-family="DINCondensed-Bold" font-weight="bold" font-size="107.1" fill="#34A4DA" transform="matrix(1.00, 0.00, -0.00, -1.00, 163.5, 2.0)">T</text><text xml:space="preserve" font-family="DINCondensed-Bold" font-weight="bold" font-size="107.1" fill="#34A4DA" transform="matrix(1.00, 0.00, -0.00, -1.00, 199.1, 2.0)">E</text><text xml:space="preserve" font-family="DINCondensed-Bold" font-weight="bold" font-size="107.1" fill="#34A4DA" transform="matrix(1.00, 0.00, -0.00, -1.00, 238.7, 2.0)"> </text><text xml:space="preserve" font-family="DINCondensed-Bold" font-weight="bold" font-size="107.1" fill="#34A4DA" transform="matrix(1.00, 0.00, -0.00, -1.00, 258.6, 2.0)">A</text><text xml:space="preserve" font-family="DINCondensed-Bold" font-weight="bold" font-size="107.1" fill="#34A4DA" transform="matrix(1.00, 0.00, -0.00, -1.00, 302.2, 2.0)"> </text><text xml:space="preserve" font-family="DINCondensed-Bold" font-weight="bold" font-size="107.1" fill="#34A4DA" transform="matrix(1.00, 0.00, -0.00, -1.00, 322.2, 2.0)">B</text><text xml:space="preserve" font-family="DINCondensed-Bold" font-weight="bold" font-size="107.1" fill="#34A4DA" transform="matrix(1.00, 0.00, -0.00, -1.00, 367.8, 2.0)">L</text><text xml:space="preserve" font-family="DINCondensed-Bold" font-weight="bold" font-size="107.1" fill="#34A4DA" transform="matrix(1.00, 0.00, -0.00, -1.00, 407.4, 2.0)">O</text><text xml:space="preserve" font-family="DINCondensed-Bold" font-weight="bold" font-size="107.1" fill="#34A4DA" transform="matrix(1.00, 0.00, -0.00, -1.00, 453.0, 2.0)">G</text><text xml:space="preserve" font-family="DINCondensed-Bold" font-weight="bold" font-size="107.1" fill="#34A4DA" transform="matrix(1.00, 0.00, -0.00, -1.00, 498.7, 2.0)"> </text><text xml:space="preserve" font-family="DINCondensed-Bold" font-weight="bold" font-size="107.1" fill="#34A4DA" transform="matrix(1.00, 0.00, -0.00, -1.00, 518.6, 2.0)">W</text><text xml:space="preserve" font-family="DINCondensed-Bold" font-weight="bold" font-size="107.1" fill="#34A4DA" transform="matrix(1.00, 0.00, -0.00, -1.00, 582.1, 2.0)">I</text><text xml:space="preserve" font-family="DINCondensed-Bold" font-weight="bold" font-size="107.1" fill="#34A4DA" transform="matrix(1.00, 0.00, -0.00, -1.00, 603.9, 2.0)">T</text><text xml:space="preserve" font-family="DINCondensed-Bold" font-weight="bold" font-size="107.1" fill="#34A4DA" transform="matrix(1.00, 0.00, -0.00, -1.00, 639.5, 2.0)">H</text><text xml:space="preserve" font-family="DINCondensed-Bold" font-weight="bold" font-size="107.1" fill="#34A4DA" transform="matrix(1.00, 0.00, -0.00, -1.00, 685.1, 2.0)"> </text><text xml:space="preserve" font-family="DINCondensed-Bold" font-weight="bold" font-size="107.1" fill="#34A4DA" transform="matrix(1.00, 0.00, -0.00, -1.00, 705.0, 2.0)">J</text><text xml:space="preserve" font-family="DINCondensed-Bold" font-weight="bold" font-size="107.1" fill="#34A4DA" transform="matrix(1.00, 0.00, -0.00, -1.00, 740.7, 2.0)">E</text><text xml:space="preserve" font-family="DINCondensed-Bold" font-weight="bold" font-size="107.1" fill="#34A4DA" transform="matrix(1.00, 0.00, -0.00, -1.00, 780.3, 2.0)">K</text><text xml:space="preserve" font-family="DINCondensed-Bold" font-weight="bold" font-size="107.1" fill="#34A4DA" transform="matrix(1.00, 0.00, -0.00, -1.00, 826.0, 2.0)">Y</text><text xml:space="preserve" font-family="DINCondensed-Bold" font-weight="bold" font-size="107.1" fill="#34A4DA" transform="matrix(1.00, 0.00, -0.00, -1.00, 867.5, 2.0)">L</text><text xml:space="preserve" font-family="DINCondensed-Bold" font-weight="bold" font-size="107.1" fill="#34A4DA" transform="matrix(1.00, 0.00, -0.00, -1.00, 907.1, 2.0)">L</text></g></svg>