<?xml version="1.0" encoding="UTF-8" standalone="no"?><svg xmlns="http://www.w3.org/2000/svg" xmlns:xlink="http://www.w3.org/1999/xlink" clip-rule="evenodd" stroke-miterlimit="4.00" viewBox="0 0 1024 768"><desc>SVG generated by Keynote</desc><defs></defs><g transform="matrix(1.00, 0.00, -0.00, -1.00, 0.0, 768.0)"><path d="M 0.0 768.0 L 1024.0 768.0 L 1024.0 0.0 L 0.0 0.0 Z M 0.0 768.0 " fill="#EAEAEA"></path><path d="M 0.0 0.0 L 960.0 0.0 " fill="none" stroke="#A6AAA9" stroke-width="2.00" transform="matrix(1.00, 0.00, 0.00, -1.00, 32.0, 689.8)"></path><text xml:space="preserve" font-family="DINAlternate-Bold" font-weight="bold" font-size="24.0" fill="#838686" transform="matrix(1.00, 0.00, -0.00, -1.00, 36.0, 705.0)">C</text><text xml:space="preserve" font-family="DINAlternate-Bold" font-weight="bold" font-size="24.0" fill="#838686" transform="matrix(1.00, 0.00, -0.00, -1.00, 50.6, 705.0)">R</text><text xml:space="preserve" font-family="DINAlternate-Bold" font-weight="bold" font-size="24.0" fill="#838686" transform="matrix(1.00, 0.00, -0.00, -1.00, 66.4, 705.0)">E</text><text xml:space="preserve" font-family="DINAlternate-Bold" font-weight="bold" font-size="24.0" fill="#838686" transform="matrix(1.00, 0.00, -0.00, -1.00, 80.9, 705.0)">A</text><text xml:space="preserve" font-family="DINAlternate-Bold" font-weight="bold" font-size="24.0" fill="#838686" transform="matrix(1.00, 0.00, -0.00, -1.00, 95.0, 705.0)">T</text><text xml:space="preserve" font-family="DINAlternate-Bold" font-weight="bold" font-size="24.0" fill="#838686" transform="matrix(1.00, 0.00, -0.00, -1.00, 108.2, 705.0)">E</text><text xml:space="preserve" font-family="DINAlternate-Bold" font-weight="bold" font-size="24.0" fill="#838686" transform="matrix(1.00, 0.00, -0.00, -1.00, 122.7, 705.0)"> </text><text xml:space="preserve" font-family="DINAlternate-Bold" font-weight="bold" font-size="24.0" fill="#838686" transform="matrix(1.00, 0.00, -0.00, -1.00, 129.7, 705.0)">A</text><text xml:space="preserve" font-family="DINAlternate-Bold" font-weight="bold" font-size="24.0" fill="#838686" transform="matrix(1.00, 0.00, -0.00, -1.00, 145.5, 705.0)"> </text><text xml:space="preserve" font-family="DINAlternate-Bold" font-weight="bold" font-size="24.0" fill="#838686" transform="matrix(1.00, 0.00, -0.00, -1.00, 152.5, 705.0)">B</text><text xml:space="preserve" font-family="DINAlternate-Bold" font-weight="bold" font-size="24.0" fill="#838686" transform="matrix(1.00, 0.00, -0.00, -1.00, 168.3, 705.0)">L</text><text xml:space="preserve" font-family="DINAlternate-Bold" font-weight="bold" font-size="24.0" fill="#838686" transform="matrix(1.00, 0.00, -0.00, -1.00, 182.9, 705.0)">O</text><text xml:space="preserve" font-family="DINAlternate-Bold" font-weight="bold" font-size="24.0" fill="#838686" transform="matrix(1.00, 0.00, -0.00, -1.00, 198.7, 705.0)">G</text><text xml:space="preserve" font-family="DINAlternate-Bold" font-weight="bold" font-size="24.0" fill="#838686" transform="matrix(1.00, 0.00, -0.00, -1.00, 214.5, 705.0)"> </text><text xml:space="preserve" font-family="DINAlternate-Bold" font-weight="bold" font-size="24.0" fill="#838686" transform="matrix(1.00, 0.00, -0.00, -1.00, 221.5, 705.0)">W</text><text xml:space="preserve" font-family="DINAlternate-Bold" font-weight="bold" font-size="24.0" fill="#838686" transform="matrix(1.00, 0.00, -0.00, -1.00, 242.6, 705.0)">I</text><text xml:space="preserve" font-family="DINAlternate-Bold" font-weight="bold" font-size="24.0" fill="#838686" transform="matrix(1.00, 0.00, -0.00, -1.00, 250.0, 705.0)">T</text><text xml:space="preserve" font-family="DINAlternate-Bold" font-weight="bold" font-size="24.0" fill="#838686" transform="matrix(1.00, 0.00, -0.00, -1.00, 263.2, 705.0)">H</text><text xml:space="preserve" font-family="DINAlternate-Bold" font-weight="bold" font-size="24.0" fill="#838686" transform="matrix(1.00, 0.00, -0.00, -1.00, 280.0, 705.0)"> </text><text xml:space="preserve" font-family="DINAlternate-Bold" font-weight="bold" font-size="24.0" fill="#838686" transform="matrix(1.00, 0.00, -0.00, -1.00, 286.9, 705.0)">J</text><text xml:space="preserve" font-family="DINAlternate-Bold" font-weight="bold" font-size="24.0" fill="#838686" transform="matrix(1.00, 0.00, -0.00, -1.00, 299.7, 705.0)">E</text><text xml:space="preserve" font-family="DINAlternate-Bold" font-weight="bold" font-size="24.0" fill="#838686" transform="matrix(1.00, 0.00, -0.00, -1.00, 314.2, 705.0)">K</text><text xml:space="preserve" font-family="DINAlternate-Bold" font-weight="bold" font-size="24.0" fill="#838686" transform="matrix(1.00, 0.00, -0.00, -1.00, 330.6, 705.0)">Y</text><text xml:space="preserve" font-family="DINAlternate-Bold" font-weight="bold" font-size="24.0" fill="#838686" transform="matrix(1.00, 0.00, -0.00, -1.00, 343.8, 705.0)">L</text><text xml:space="preserve" font-family="DINAlternate-Bold" font-weight="bold" font-size="24.0" fill="#838686" transform="matrix(1.00, 0.00, -0.00, -1.00, 358.3, 705.0)">L</text><text xml:space="preserve" font-family="DINCondensed-Bold" font-weight="bold" font-size="48.0" fill="#34A4DA" transform="matrix(1.00, 0.00, -0.00, -1.00, 36.0, 608.0)">W</text><text xml:space="preserve" font-family="DINCondensed-Bold" font-weight="bold" font-size="48.0" fill="#34A4DA" transform="matrix(1.00, 0.00, -0.00, -1.00, 64.5, 608.0)">E</text><text xml:space="preserve" font-family="DINCondensed-Bold" font-weight="bold" font-size="48.0" fill="#34A4DA" transform="matrix(1.00, 0.00, -0.00, -1.00, 82.2, 608.0)">B</text><text xml:space="preserve" font-family="DINCondensed-Bold" font-weight="bold" font-size="48.0" fill="#34A4DA" transform="matrix(1.00, 0.00, -0.00, -1.00, 102.7, 608.0)">S</text><text xml:space="preserve" font-family="DINCondensed-Bold" font-weight="bold" font-size="48.0" fill="#34A4DA" transform="matrix(1.00, 0.00, -0.00, -1.00, 122.2, 608.0)">I</text><text xml:space="preserve" font-family="DINCondensed-Bold" font-weight="bold" font-size="48.0" fill="#34A4DA" transform="matrix(1.00, 0.00, -0.00, -1.00, 132.0, 608.0)">T</text><text xml:space="preserve" font-family="DINCondensed-Bold" font-weight="bold" font-size="48.0" fill="#34A4DA" transform="matrix(1.00, 0.00, -0.00, -1.00, 147.9, 608.0)">E</text><text xml:space="preserve" font-family="DINCondensed-Bold" font-weight="bold" font-size="48.0" fill="#34A4DA" transform="matrix(1.00, 0.00, -0.00, -1.00, 165.6, 608.0)">S</text><text xml:space="preserve" font-family="DINCondensed-Bold" font-weight="bold" font-size="48.0" fill="#34A4DA" transform="matrix(1.00, 0.00, -0.00, -1.00, 185.1, 608.0)"> </text><text xml:space="preserve" font-family="DINCondensed-Bold" font-weight="bold" font-size="48.0" fill="#34A4DA" transform="matrix(1.00, 0.00, -0.00, -1.00, 194.1, 608.0)">P</text><text xml:space="preserve" font-family="DINCondensed-Bold" font-weight="bold" font-size="48.0" fill="#34A4DA" transform="matrix(1.00, 0.00, -0.00, -1.00, 213.6, 608.0)">O</text><text xml:space="preserve" font-family="DINCondensed-Bold" font-weight="bold" font-size="48.0" fill="#34A4DA" transform="matrix(1.00, 0.00, -0.00, -1.00, 233.5, 608.0)">W</text><text xml:space="preserve" font-family="DINCondensed-Bold" font-weight="bold" font-size="48.0" fill="#34A4DA" transform="matrix(1.00, 0.00, -0.00, -1.00, 261.9, 608.0)">E</text><text xml:space="preserve" font-family="DINCondensed-Bold" font-weight="bold" font-size="48.0" fill="#34A4DA" transform="matrix(1.00, 0.00, -0.00, -1.00, 279.7, 608.0)">R</text><text xml:space="preserve" font-family="DINCondensed-Bold" font-weight="bold" font-size="48.0" fill="#34A4DA" transform="matrix(1.00, 0.00, -0.00, -1.00, 300.1, 608.0)">E</text><text xml:space="preserve" font-family="DINCondensed-Bold" font-weight="bold" font-size="48.0" fill="#34A4DA" transform="matrix(1.00, 0.00, -0.00, -1.00, 317.9, 608.0)">D</text><text xml:space="preserve" font-family="DINCondensed-Bold" font-weight="bold" font-size="48.0" fill="#34A4DA" transform="matrix(1.00, 0.00, -0.00, -1.00, 338.4, 608.0)"> </text><text xml:space="preserve" font-family="DINCondensed-Bold" font-weight="bold" font-size="48.0" fill="#34A4DA" transform="matrix(1.00, 0.00, -0.00, -1.00, 347.3, 608.0)">B</text><text xml:space="preserve" font-family="DINCondensed-Bold" font-weight="bold" font-size="48.0" fill="#34A4DA" transform="matrix(1.00, 0.00, -0.00, -1.00, 367.7, 608.0)">Y</text><text xml:space="preserve" font-family="DINCondensed-Bold" font-weight="bold" font-size="48.0" fill="#34A4DA" transform="matrix(1.00, 0.00, -0.00, -1.00, 386.4, 608.0)"> </text><text xml:space="preserve" font-family="DINCondensed-Bold" font-weight="bold" font-size="48.0" fill="#34A4DA" transform="matrix(1.00, 0.00, -0.00, -1.00, 395.3, 608.0)">J</text><text xml:space="preserve" font-family="DINCondensed-Bold" font-weight="bold" font-size="48.0" fill="#34A4DA" transform="matrix(1.00, 0.00, -0.00, -1.00, 411.3, 608.0)">E</text><text xml:space="preserve" font-family="DINCondensed-Bold" font-weight="bold" font-size="48.0" fill="#34A4DA" transform="matrix(1.00, 0.00, -0.00, -1.00, 429.0, 608.0)">K</text><text xml:space="preserve" font-family="DINCondensed-Bold" font-weight="bold" font-size="48.0" fill="#34A4DA" transform="matrix(1.00, 0.00, -0.00, -1.00, 449.5, 608.0)">Y</text><text xml:space="preserve" font-family="DINCondensed-Bold" font-weight="bold" font-size="48.0" fill="#34A4DA" transform="matrix(1.00, 0.00, -0.00, -1.00, 468.1, 608.0)">L</text><text xml:space="preserve" font-family="DINCondensed-Bold" font-weight="bold" font-size="48.0" fill="#34A4DA" transform="matrix(1.00, 0.00, -0.00, -1.00, 485.9, 608.0)">L</text><text xml:space="preserve" font-family="LucidaGrande" font-size="33.9" fill="#34A4DA" transform="matrix(1.00, 0.00, -0.00, -1.00, 36.0, 438.8)">▸</text><text xml:space="preserve" font-family="AvenirNext-MediumItalic" font-style="italic" font-size="32.3" fill="#838686" transform="matrix(1.00, 0.00, -0.00, -1.00, 69.0, 441.0)">R</text><text xml:space="preserve" font-family="AvenirNext-MediumItalic" font-style="italic" font-size="32.3" fill="#838686" transform="matrix(1.00, 0.00, -0.00, -1.00, 88.4, 441.0)">u</text><text xml:space="preserve" font-family="AvenirNext-MediumItalic" font-style="italic" font-size="32.3" fill="#838686" transform="matrix(1.00, 0.00, -0.00, -1.00, 107.1, 441.0)">b</text><text xml:space="preserve" font-family="AvenirNext-MediumItalic" font-style="italic" font-size="32.3" fill="#838686" transform="matrix(1.00, 0.00, -0.00, -1.00, 127.6, 441.0)">y</text><text xml:space="preserve" font-family="AvenirNext-MediumItalic" font-style="italic" font-size="32.3" fill="#838686" transform="matrix(1.00, 0.00, -0.00, -1.00, 143.6, 441.0)"> </text><text xml:space="preserve" font-family="AvenirNext-MediumItalic" font-style="italic" font-size="32.3" fill="#838686" transform="matrix(1.00, 0.00, -0.00, -1.00, 151.7, 441.0)">d</text><text xml:space="preserve" font-family="AvenirNext-MediumItalic" font-style="italic" font-size="32.3" fill="#838686" transform="matrix(1.00, 0.00, -0.00, -1.00, 171.9, 441.0)">o</text><text xml:space="preserve" font-family="AvenirNext-MediumItalic" font-style="italic" font-size="32.3" fill="#838686" transform="matrix(1.00, 0.00, -0.00, -1.00, 191.3, 441.0)">c</text><text xml:space="preserve" font-family="AvenirNext-MediumItalic" font-style="italic" font-size="32.3" fill="#838686" transform="matrix(1.00, 0.00, -0.00, -1.00, 207.3, 441.0)">u</text><text xml:space="preserve" font-family="AvenirNext-MediumItalic" font-style="italic" font-size="32.3" fill="#838686" transform="matrix(1.00, 0.00, -0.00, -1.00, 226.1, 441.0)">m</text><text xml:space="preserve" font-family="AvenirNext-MediumItalic" font-style="italic" font-size="32.3" fill="#838686" transform="matrix(1.00, 0.00, -0.00, -1.00, 254.7, 441.0)">e</text><text xml:space="preserve" font-family="AvenirNext-MediumItalic" font-style="italic" font-size="32.3" fill="#838686" transform="matrix(1.00, 0.00, -0.00, -1.00, 272.9, 441.0)">n</text><text xml:space="preserve" font-family="AvenirNext-MediumItalic" font-style="italic" font-size="32.3" fill="#838686" transform="matrix(1.00, 0.00, -0.00, -1.00, 291.7, 441.0)">t</text><text xml:space="preserve" font-family="AvenirNext-MediumItalic" font-style="italic" font-size="32.3" fill="#838686" transform="matrix(1.00, 0.00, -0.00, -1.00, 302.1, 441.0)">a</text><text xml:space="preserve" font-family="AvenirNext-MediumItalic" font-style="italic" font-size="32.3" fill="#838686" transform="matrix(1.00, 0.00, -0.00, -1.00, 319.2, 441.0)">t</text><text xml:space="preserve" font-family="AvenirNext-MediumItalic" font-style="italic" font-size="32.3" fill="#838686" transform="matrix(1.00, 0.00, -0.00, -1.00, 329.6, 441.0)">i</text><text xml:space="preserve" font-family="AvenirNext-MediumItalic" font-style="italic" font-size="32.3" fill="#838686" transform="matrix(1.00, 0.00, -0.00, -1.00, 338.0, 441.0)">o</text><text xml:space="preserve" font-family="AvenirNext-MediumItalic" font-style="italic" font-size="32.3" fill="#838686" transform="matrix(1.00, 0.00, -0.00, -1.00, 357.4, 441.0)">n</text><text xml:space="preserve" font-family="AvenirNext-MediumItalic" font-style="italic" font-size="32.3" fill="#838686" transform="matrix(1.00, 0.00, -0.00, -1.00, 376.1, 441.0)"> </text><text xml:space="preserve" font-family="AvenirNext-MediumItalic" font-style="italic" font-size="32.3" fill="#838686" transform="matrix(1.00, 0.00, -0.00, -1.00, 384.2, 441.0)">h</text><text xml:space="preserve" font-family="AvenirNext-MediumItalic" font-style="italic" font-size="32.3" fill="#838686" transform="matrix(1.00, 0.00, -0.00, -1.00, 403.0, 441.0)">t</text><text xml:space="preserve" font-family="AvenirNext-MediumItalic" font-style="italic" font-size="32.3" fill="#838686" transform="matrix(1.00, 0.00, -0.00, -1.00, 412.9, 441.0)">t</text><text xml:space="preserve" font-family="AvenirNext-MediumItalic" font-style="italic" font-size="32.3" fill="#838686" transform="matrix(1.00, 0.00, -0.00, -1.00, 423.3, 441.0)">p</text><text xml:space="preserve" font-family="AvenirNext-MediumItalic" font-style="italic" font-size="32.3" fill="#838686" transform="matrix(1.00, 0.00, -0.00, -1.00, 443.7, 441.0)">s</text><text xml:space="preserve" font-family="AvenirNext-MediumItalic" font-style="italic" font-size="32.3" fill="#838686" transform="matrix(1.00, 0.00, -0.00, -1.00, 458.1, 441.0)">:</text><text xml:space="preserve" font-family="AvenirNext-MediumItalic" font-style="italic" font-size="32.3" fill="#838686" transform="matrix(1.00, 0.00, -0.00, -1.00, 467.8, 441.0)">/</text><text xml:space="preserve" font-family="AvenirNext-MediumItalic" font-style="italic" font-size="32.3" fill="#838686" transform="matrix(1.00, 0.00, -0.00, -1.00, 480.0, 441.0)">/</text><text xml:space="preserve" font-family="AvenirNext-MediumItalic" font-style="italic" font-size="32.3" fill="#838686" transform="matrix(1.00, 0.00, -0.00, -1.00, 492.3, 441.0)">w</text><text xml:space="preserve" font-family="AvenirNext-MediumItalic" font-style="italic" font-size="32.3" fill="#838686" transform="matrix(1.00, 0.00, -0.00, -1.00, 516.8, 441.0)">w</text><text xml:space="preserve" font-family="AvenirNext-MediumItalic" font-style="italic" font-size="32.3" fill="#838686" transform="matrix(1.00, 0.00, -0.00, -1.00, 541.3, 441.0)">w</text><text xml:space="preserve" font-family="AvenirNext-MediumItalic" font-style="italic" font-size="32.3" fill="#838686" transform="matrix(1.00, 0.00, -0.00, -1.00, 564.8, 441.0)">.</text><text xml:space="preserve" font-family="AvenirNext-MediumItalic" font-style="italic" font-size="32.3" fill="#838686" transform="matrix(1.00, 0.00, -0.00, -1.00, 573.2, 441.0)">r</text><text xml:space="preserve" font-family="AvenirNext-MediumItalic" font-style="italic" font-size="32.3" fill="#838686" transform="matrix(1.00, 0.00, -0.00, -1.00, 584.3, 441.0)">u</text><text xml:space="preserve" font-family="AvenirNext-MediumItalic" font-style="italic" font-size="32.3" fill="#838686" transform="matrix(1.00, 0.00, -0.00, -1.00, 603.1, 441.0)">b</text><text xml:space="preserve" font-family="AvenirNext-MediumItalic" font-style="italic" font-size="32.3" fill="#838686" transform="matrix(1.00, 0.00, -0.00, -1.00, 623.5, 441.0)">y</text><text xml:space="preserve" font-family="AvenirNext-MediumItalic" font-style="italic" font-size="32.3" fill="#838686" transform="matrix(1.00, 0.00, -0.00, -1.00, 639.5, 441.0)">-</text><text xml:space="preserve" font-family="AvenirNext-MediumItalic" font-style="italic" font-size="32.3" fill="#838686" transform="matrix(1.00, 0.00, -0.00, -1.00, 649.9, 441.0)">l</text><text xml:space="preserve" font-family="AvenirNext-MediumItalic" font-style="italic" font-size="32.3" fill="#838686" transform="matrix(1.00, 0.00, -0.00, -1.00, 658.2, 441.0)">a</text><text xml:space="preserve" font-family="AvenirNext-MediumItalic" font-style="italic" font-size="32.3" fill="#838686" transform="matrix(1.00, 0.00, -0.00, -1.00, 675.6, 441.0)">n</text><text xml:space="preserve" font-family="AvenirNext-MediumItalic" font-style="italic" font-size="32.3" fill="#838686" transform="matrix(1.00, 0.00, -0.00, -1.00, 694.4, 441.0)">g</text><text xml:space="preserve" font-family="AvenirNext-MediumItalic" font-style="italic" font-size="32.3" fill="#838686" transform="matrix(1.00, 0.00, -0.00, -1.00, 714.7, 441.0)">.</text><text xml:space="preserve" font-family="AvenirNext-MediumItalic" font-style="italic" font-size="32.3" fill="#838686" transform="matrix(1.00, 0.00, -0.00, -1.00, 723.1, 441.0)">o</text><text xml:space="preserve" font-family="AvenirNext-MediumItalic" font-style="italic" font-size="32.3" fill="#838686" transform="matrix(1.00, 0.00, -0.00, -1.00, 742.5, 441.0)">r</text><text xml:space="preserve" font-family="AvenirNext-MediumItalic" font-style="italic" font-size="32.3" fill="#838686" transform="matrix(1.00, 0.00, -0.00, -1.00, 753.2, 441.0)">g</text><text xml:space="preserve" font-family="AvenirNext-MediumItalic" font-style="italic" font-size="32.3" fill="#838686" transform="matrix(1.00, 0.00, -0.00, -1.00, 773.5, 441.0)">/</text><text xml:space="preserve" font-family="AvenirNext-MediumItalic" font-style="italic" font-size="32.3" fill="#838686" transform="matrix(1.00, 0.00, -0.00, -1.00, 785.8, 441.0)">e</text><text xml:space="preserve" font-family="AvenirNext-MediumItalic" font-style="italic" font-size="32.3" fill="#838686" transform="matrix(1.00, 0.00, -0.00, -1.00, 804.0, 441.0)">n</text><text xml:space="preserve" font-family="AvenirNext-MediumItalic" font-style="italic" font-size="32.3" fill="#838686" transform="matrix(1.00, 0.00, -0.00, -1.00, 822.8, 441.0)">/</text><text xml:space="preserve" font-family="AvenirNext-MediumItalic" font-style="italic" font-size="32.3" fill="#838686" transform="matrix(1.00, 0.00, -0.00, -1.00, 835.0, 441.0)"> </text><text xml:space="preserve" font-family="LucidaGrande" font-size="33.9" fill="#34A4DA" transform="matrix(1.00, 0.00, -0.00, -1.00, 36.0, 368.2)">▸</text><text xml:space="preserve" font-family="AvenirNext-MediumItalic" font-style="italic" font-size="32.3" fill="#838686" transform="matrix(1.00, 0.00, -0.00, -1.00, 69.0, 371.0)">B</text><text xml:space="preserve" font-family="AvenirNext-MediumItalic" font-style="italic" font-size="32.3" fill="#838686" transform="matrix(1.00, 0.00, -0.00, -1.00, 89.4, 371.0)">o</text><text xml:space="preserve" font-family="AvenirNext-MediumItalic" font-style="italic" font-size="32.3" fill="#838686" transform="matrix(1.00, 0.00, -0.00, -1.00, 108.8, 371.0)">o</text><text xml:space="preserve" font-family="AvenirNext-MediumItalic" font-style="italic" font-size="32.3" fill="#838686" transform="matrix(1.00, 0.00, -0.00, -1.00, 128.2, 371.0)">t</text><text xml:space="preserve" font-family="AvenirNext-MediumItalic" font-style="italic" font-size="32.3" fill="#838686" transform="matrix(1.00, 0.00, -0.00, -1.00, 138.7, 371.0)">s</text><text xml:space="preserve" font-family="AvenirNext-MediumItalic" font-style="italic" font-size="32.3" fill="#838686" transform="matrix(1.00, 0.00, -0.00, -1.00, 153.0, 371.0)">t</text><text xml:space="preserve" font-family="AvenirNext-MediumItalic" font-style="italic" font-size="32.3" fill="#838686" transform="matrix(1.00, 0.00, -0.00, -1.00, 163.5, 371.0)">r</text><text xml:space="preserve" font-family="AvenirNext-MediumItalic" font-style="italic" font-size="32.3" fill="#838686" transform="matrix(1.00, 0.00, -0.00, -1.00, 174.2, 371.0)">a</text><text xml:space="preserve" font-family="AvenirNext-MediumItalic" font-style="italic" font-size="32.3" fill="#838686" transform="matrix(1.00, 0.00, -0.00, -1.00, 191.5, 371.0)">p</text><text xml:space="preserve" font-family="AvenirNext-MediumItalic" font-style="italic" font-size="32.3" fill="#838686" transform="matrix(1.00, 0.00, -0.00, -1.00, 211.9, 371.0)"> </text><text xml:space="preserve" font-family="AvenirNext-MediumItalic" font-style="italic" font-size="32.3" fill="#838686" transform="matrix(1.00, 0.00, -0.00, -1.00, 220.0, 371.0)">d</text><text xml:space="preserve" font-family="AvenirNext-MediumItalic" font-style="italic" font-size="32.3" fill="#838686" transform="matrix(1.00, 0.00, -0.00, -1.00, 240.3, 371.0)">o</text><text xml:space="preserve" font-family="AvenirNext-MediumItalic" font-style="italic" font-size="32.3" fill="#838686" transform="matrix(1.00, 0.00, -0.00, -1.00, 259.7, 371.0)">c</text><text xml:space="preserve" font-family="AvenirNext-MediumItalic" font-style="italic" font-size="32.3" fill="#838686" transform="matrix(1.00, 0.00, -0.00, -1.00, 275.7, 371.0)">u</text><text xml:space="preserve" font-family="AvenirNext-MediumItalic" font-style="italic" font-size="32.3" fill="#838686" transform="matrix(1.00, 0.00, -0.00, -1.00, 294.5, 371.0)">m</text><text xml:space="preserve" font-family="AvenirNext-MediumItalic" font-style="italic" font-size="32.3" fill="#838686" transform="matrix(1.00, 0.00, -0.00, -1.00, 323.0, 371.0)">e</text><text xml:space="preserve" font-family="AvenirNext-MediumItalic" font-style="italic" font-size="32.3" fill="#838686" transform="matrix(1.00, 0.00, -0.00, -1.00, 341.3, 371.0)">n</text><text xml:space="preserve" font-family="AvenirNext-MediumItalic" font-style="italic" font-size="32.3" fill="#838686" transform="matrix(1.00, 0.00, -0.00, -1.00, 360.0, 371.0)">t</text><text xml:space="preserve" font-family="AvenirNext-MediumItalic" font-style="italic" font-size="32.3" fill="#838686" transform="matrix(1.00, 0.00, -0.00, -1.00, 370.5, 371.0)">a</text><text xml:space="preserve" font-family="AvenirNext-MediumItalic" font-style="italic" font-size="32.3" fill="#838686" transform="matrix(1.00, 0.00, -0.00, -1.00, 387.5, 371.0)">t</text><text xml:space="preserve" font-family="AvenirNext-MediumItalic" font-style="italic" font-size="32.3" fill="#838686" transform="matrix(1.00, 0.00, -0.00, -1.00, 398.0, 371.0)">i</text><text xml:space="preserve" font-family="AvenirNext-MediumItalic" font-style="italic" font-size="32.3" fill="#838686" transform="matrix(1.00, 0.00, -0.00, -1.00, 406.3, 371.0)">o</text><text xml:space="preserve" font-family="AvenirNext-MediumItalic" font-style="italic" font-size="32.3" fill="#838686" transform="matrix(1.00, 0.00, -0.00, -1.00, 425.7, 371.0)">n</text><text xml:space="preserve" font-family="AvenirNext-MediumItalic" font-style="italic" font-size="32.3" fill="#838686" transform="matrix(1.00, 0.00, -0.00, -1.00, 444.5, 371.0)"> </text><text xml:space="preserve" font-family="AvenirNext-MediumItalic" font-style="italic" font-size="32.3" fill="#838686" transform="matrix(1.00, 0.00, -0.00, -1.00, 452.6, 371.0)">h</text><text xml:space="preserve" font-family="AvenirNext-MediumItalic" font-style="italic" font-size="32.3" fill="#838686" transform="matrix(1.00, 0.00, -0.00, -1.00, 471.3, 371.0)">t</text><text xml:space="preserve" font-family="AvenirNext-MediumItalic" font-style="italic" font-size="32.3" fill="#838686" transform="matrix(1.00, 0.00, -0.00, -1.00, 481.2, 371.0)">t</text><text xml:space="preserve" font-family="AvenirNext-MediumItalic" font-style="italic" font-size="32.3" fill="#838686" transform="matrix(1.00, 0.00, -0.00, -1.00, 491.7, 371.0)">p</text><text xml:space="preserve" font-family="AvenirNext-MediumItalic" font-style="italic" font-size="32.3" fill="#838686" transform="matrix(1.00, 0.00, -0.00, -1.00, 512.1, 371.0)">s</text><text xml:space="preserve" font-family="AvenirNext-MediumItalic" font-style="italic" font-size="32.3" fill="#838686" transform="matrix(1.00, 0.00, -0.00, -1.00, 526.4, 371.0)">:</text><text xml:space="preserve" font-family="AvenirNext-MediumItalic" font-style="italic" font-size="32.3" fill="#838686" transform="matrix(1.00, 0.00, -0.00, -1.00, 536.1, 371.0)">/</text><text xml:space="preserve" font-family="AvenirNext-MediumItalic" font-style="italic" font-size="32.3" fill="#838686" transform="matrix(1.00, 0.00, -0.00, -1.00, 548.4, 371.0)">/</text><text xml:space="preserve" font-family="AvenirNext-MediumItalic" font-style="italic" font-size="32.3" fill="#838686" transform="matrix(1.00, 0.00, -0.00, -1.00, 560.6, 371.0)">g</text><text xml:space="preserve" font-family="AvenirNext-MediumItalic" font-style="italic" font-size="32.3" fill="#838686" transform="matrix(1.00, 0.00, -0.00, -1.00, 581.0, 371.0)">e</text><text xml:space="preserve" font-family="AvenirNext-MediumItalic" font-style="italic" font-size="32.3" fill="#838686" transform="matrix(1.00, 0.00, -0.00, -1.00, 599.2, 371.0)">t</text><text xml:space="preserve" font-family="AvenirNext-MediumItalic" font-style="italic" font-size="32.3" fill="#838686" transform="matrix(1.00, 0.00, -0.00, -1.00, 609.7, 371.0)">b</text><text xml:space="preserve" font-family="AvenirNext-MediumItalic" font-style="italic" font-size="32.3" fill="#838686" transform="matrix(1.00, 0.00, -0.00, -1.00, 630.1, 371.0)">o</text><text xml:space="preserve" font-family="AvenirNext-MediumItalic" font-style="italic" font-size="32.3" fill="#838686" transform="matrix(1.00, 0.00, -0.00, -1.00, 649.5, 371.0)">o</text><text xml:space="preserve" font-family="AvenirNext-MediumItalic" font-style="italic" font-size="32.3" fill="#838686" transform="matrix(1.00, 0.00, -0.00, -1.00, 668.9, 371.0)">t</text><text xml:space="preserve" font-family="AvenirNext-MediumItalic" font-style="italic" font-size="32.3" fill="#838686" transform="matrix(1.00, 0.00, -0.00, -1.00, 679.3, 371.0)">s</text><text xml:space="preserve" font-family="AvenirNext-MediumItalic" font-style="italic" font-size="32.3" fill="#838686" transform="matrix(1.00, 0.00, -0.00, -1.00, 693.7, 371.0)">t</text><text xml:space="preserve" font-family="AvenirNext-MediumItalic" font-style="italic" font-size="32.3" fill="#838686" transform="matrix(1.00, 0.00, -0.00, -1.00, 704.1, 371.0)">r</text><text xml:space="preserve" font-family="AvenirNext-MediumItalic" font-style="italic" font-size="32.3" fill="#838686" transform="matrix(1.00, 0.00, -0.00, -1.00, 714.8, 371.0)">a</text><text xml:space="preserve" font-family="AvenirNext-MediumItalic" font-style="italic" font-size="32.3" fill="#838686" transform="matrix(1.00, 0.00, -0.00, -1.00, 732.2, 371.0)">p</text><text xml:space="preserve" font-family="AvenirNext-MediumItalic" font-style="italic" font-size="32.3" fill="#838686" transform="matrix(1.00, 0.00, -0.00, -1.00, 752.2, 371.0)">.</text><text xml:space="preserve" font-family="AvenirNext-MediumItalic" font-style="italic" font-size="32.3" fill="#838686" transform="matrix(1.00, 0.00, -0.00, -1.00, 760.6, 371.0)">c</text><text xml:space="preserve" font-family="AvenirNext-MediumItalic" font-style="italic" font-size="32.3" fill="#838686" transform="matrix(1.00, 0.00, -0.00, -1.00, 776.6, 371.0)">o</text><text xml:space="preserve" font-family="AvenirNext-MediumItalic" font-style="italic" font-size="32.3" fill="#838686" transform="matrix(1.00, 0.00, -0.00, -1.00, 796.0, 371.0)">m</text><text xml:space="preserve" font-family="AvenirNext-MediumItalic" font-style="italic" font-size="32.3" fill="#838686" transform="matrix(1.00, 0.00, -0.00, -1.00, 824.6, 371.0)">/</text><text xml:space="preserve" font-family="AvenirNext-MediumItalic" font-style="italic" font-size="32.3" fill="#838686" transform="matrix(1.00, 0.00, -0.00, -1.00, 836.8, 371.0)"> </text><text xml:space="preserve" font-family="LucidaGrande" font-size="33.9" fill="#34A4DA" transform="matrix(1.00, 0.00, -0.00, -1.00, 36.0, 297.6)">▸</text><text xml:space="preserve" font-family="AvenirNext-MediumItalic" font-style="italic" font-size="32.3" fill="#838686" transform="matrix(1.00, 0.00, -0.00, -1.00, 69.0, 300.0)">B</text><text xml:space="preserve" font-family="AvenirNext-MediumItalic" font-style="italic" font-size="32.3" fill="#838686" transform="matrix(1.00, 0.00, -0.00, -1.00, 89.4, 300.0)">l</text><text xml:space="preserve" font-family="AvenirNext-MediumItalic" font-style="italic" font-size="32.3" fill="#838686" transform="matrix(1.00, 0.00, -0.00, -1.00, 97.8, 300.0)">o</text><text xml:space="preserve" font-family="AvenirNext-MediumItalic" font-style="italic" font-size="32.3" fill="#838686" transform="matrix(1.00, 0.00, -0.00, -1.00, 117.2, 300.0)">g</text><text xml:space="preserve" font-family="AvenirNext-MediumItalic" font-style="italic" font-size="32.3" fill="#838686" transform="matrix(1.00, 0.00, -0.00, -1.00, 137.6, 300.0)">/</text><text xml:space="preserve" font-family="AvenirNext-MediumItalic" font-style="italic" font-size="32.3" fill="#838686" transform="matrix(1.00, 0.00, -0.00, -1.00, 149.8, 300.0)">P</text><text xml:space="preserve" font-family="AvenirNext-MediumItalic" font-style="italic" font-size="32.3" fill="#838686" transform="matrix(1.00, 0.00, -0.00, -1.00, 166.7, 300.0)">e</text><text xml:space="preserve" font-family="AvenirNext-MediumItalic" font-style="italic" font-size="32.3" fill="#838686" transform="matrix(1.00, 0.00, -0.00, -1.00, 185.0, 300.0)">r</text><text xml:space="preserve" font-family="AvenirNext-MediumItalic" font-style="italic" font-size="32.3" fill="#838686" transform="matrix(1.00, 0.00, -0.00, -1.00, 196.0, 300.0)">s</text><text xml:space="preserve" font-family="AvenirNext-MediumItalic" font-style="italic" font-size="32.3" fill="#838686" transform="matrix(1.00, 0.00, -0.00, -1.00, 210.4, 300.0)">o</text><text xml:space="preserve" font-family="AvenirNext-MediumItalic" font-style="italic" font-size="32.3" fill="#838686" transform="matrix(1.00, 0.00, -0.00, -1.00, 229.8, 300.0)">n</text><text xml:space="preserve" font-family="AvenirNext-MediumItalic" font-style="italic" font-size="32.3" fill="#838686" transform="matrix(1.00, 0.00, -0.00, -1.00, 248.5, 300.0)">a</text><text xml:space="preserve" font-family="AvenirNext-MediumItalic" font-style="italic" font-size="32.3" fill="#838686" transform="matrix(1.00, 0.00, -0.00, -1.00, 265.9, 300.0)">l</text><text xml:space="preserve" font-family="AvenirNext-MediumItalic" font-style="italic" font-size="32.3" fill="#838686" transform="matrix(1.00, 0.00, -0.00, -1.00, 274.3, 300.0)"> </text><text xml:space="preserve" font-family="AvenirNext-MediumItalic" font-style="italic" font-size="32.3" fill="#838686" transform="matrix(1.00, 0.00, -0.00, -1.00, 282.0, 300.0)">W</text><text xml:space="preserve" font-family="AvenirNext-MediumItalic" font-style="italic" font-size="32.3" fill="#838686" transform="matrix(1.00, 0.00, -0.00, -1.00, 313.1, 300.0)">e</text><text xml:space="preserve" font-family="AvenirNext-MediumItalic" font-style="italic" font-size="32.3" fill="#838686" transform="matrix(1.00, 0.00, -0.00, -1.00, 331.3, 300.0)">b</text><text xml:space="preserve" font-family="AvenirNext-MediumItalic" font-style="italic" font-size="32.3" fill="#838686" transform="matrix(1.00, 0.00, -0.00, -1.00, 351.8, 300.0)">s</text><text xml:space="preserve" font-family="AvenirNext-MediumItalic" font-style="italic" font-size="32.3" fill="#838686" transform="matrix(1.00, 0.00, -0.00, -1.00, 366.1, 300.0)">i</text><text xml:space="preserve" font-family="AvenirNext-MediumItalic" font-style="italic" font-size="32.3" fill="#838686" transform="matrix(1.00, 0.00, -0.00, -1.00, 374.5, 300.0)">t</text><text xml:space="preserve" font-family="AvenirNext-MediumItalic" font-style="italic" font-size="32.3" fill="#838686" transform="matrix(1.00, 0.00, -0.00, -1.00, 385.0, 300.0)">e</text><text xml:space="preserve" font-family="AvenirNext-MediumItalic" font-style="italic" font-size="32.3" fill="#838686" transform="matrix(1.00, 0.00, -0.00, -1.00, 403.2, 300.0)"> </text><text xml:space="preserve" font-family="LucidaGrande" font-size="33.9" fill="#34A4DA" transform="matrix(1.00, 0.00, -0.00, -1.00, 36.0, 227.0)">▸</text><text xml:space="preserve" font-family="AvenirNext-MediumItalic" font-style="italic" font-size="32.3" fill="#838686" transform="matrix(1.00, 0.00, -0.00, -1.00, 69.0, 230.0)">h</text><text xml:space="preserve" font-family="AvenirNext-MediumItalic" font-style="italic" font-size="32.3" fill="#838686" transform="matrix(1.00, 0.00, -0.00, -1.00, 87.8, 230.0)">t</text><text xml:space="preserve" font-family="AvenirNext-MediumItalic" font-style="italic" font-size="32.3" fill="#838686" transform="matrix(1.00, 0.00, -0.00, -1.00, 97.7, 230.0)">t</text><text xml:space="preserve" font-family="AvenirNext-MediumItalic" font-style="italic" font-size="32.3" fill="#838686" transform="matrix(1.00, 0.00, -0.00, -1.00, 108.1, 230.0)">p</text><text xml:space="preserve" font-family="AvenirNext-MediumItalic" font-style="italic" font-size="32.3" fill="#838686" transform="matrix(1.00, 0.00, -0.00, -1.00, 128.5, 230.0)">s</text><text xml:space="preserve" font-family="AvenirNext-MediumItalic" font-style="italic" font-size="32.3" fill="#838686" transform="matrix(1.00, 0.00, -0.00, -1.00, 142.9, 230.0)">:</text><text xml:space="preserve" font-family="AvenirNext-MediumItalic" font-style="italic" font-size="32.3" fill="#838686" transform="matrix(1.00, 0.00, -0.00, -1.00, 152.6, 230.0)">/</text><text xml:space="preserve" font-family="AvenirNext-MediumItalic" font-style="italic" font-size="32.3" fill="#838686" transform="matrix(1.00, 0.00, -0.00, -1.00, 164.8, 230.0)">/</text><text xml:space="preserve" font-family="AvenirNext-MediumItalic" font-style="italic" font-size="32.3" fill="#838686" transform="matrix(1.00, 0.00, -0.00, -1.00, 177.0, 230.0)">z</text><text xml:space="preserve" font-family="AvenirNext-MediumItalic" font-style="italic" font-size="32.3" fill="#838686" transform="matrix(1.00, 0.00, -0.00, -1.00, 191.9, 230.0)">a</text><text xml:space="preserve" font-family="AvenirNext-MediumItalic" font-style="italic" font-size="32.3" fill="#838686" transform="matrix(1.00, 0.00, -0.00, -1.00, 209.3, 230.0)">c</text><text xml:space="preserve" font-family="AvenirNext-MediumItalic" font-style="italic" font-size="32.3" fill="#838686" transform="matrix(1.00, 0.00, -0.00, -1.00, 225.3, 230.0)">h</text><text xml:space="preserve" font-family="AvenirNext-MediumItalic" font-style="italic" font-size="32.3" fill="#838686" transform="matrix(1.00, 0.00, -0.00, -1.00, 244.1, 230.0)">h</text><text xml:space="preserve" font-family="AvenirNext-MediumItalic" font-style="italic" font-size="32.3" fill="#838686" transform="matrix(1.00, 0.00, -0.00, -1.00, 262.8, 230.0)">o</text><text xml:space="preserve" font-family="AvenirNext-MediumItalic" font-style="italic" font-size="32.3" fill="#838686" transform="matrix(1.00, 0.00, -0.00, -1.00, 282.2, 230.0)">l</text><text xml:space="preserve" font-family="AvenirNext-MediumItalic" font-style="italic" font-size="32.3" fill="#838686" transform="matrix(1.00, 0.00, -0.00, -1.00, 290.6, 230.0)">m</text><text xml:space="preserve" font-family="AvenirNext-MediumItalic" font-style="italic" font-size="32.3" fill="#838686" transform="matrix(1.00, 0.00, -0.00, -1.00, 319.2, 230.0)">a</text><text xml:space="preserve" font-family="AvenirNext-MediumItalic" font-style="italic" font-size="32.3" fill="#838686" transform="matrix(1.00, 0.00, -0.00, -1.00, 336.5, 230.0)">n</text><text xml:space="preserve" font-family="AvenirNext-MediumItalic" font-style="italic" font-size="32.3" fill="#838686" transform="matrix(1.00, 0.00, -0.00, -1.00, 355.3, 230.0)">.</text><text xml:space="preserve" font-family="AvenirNext-MediumItalic" font-style="italic" font-size="32.3" fill="#838686" transform="matrix(1.00, 0.00, -0.00, -1.00, 363.7, 230.0)">c</text><text xml:space="preserve" font-family="AvenirNext-MediumItalic" font-style="italic" font-size="32.3" fill="#838686" transform="matrix(1.00, 0.00, -0.00, -1.00, 379.7, 230.0)">o</text><text xml:space="preserve" font-family="AvenirNext-MediumItalic" font-style="italic" font-size="32.3" fill="#838686" transform="matrix(1.00, 0.00, -0.00, -1.00, 399.1, 230.0)">m</text><text xml:space="preserve" font-family="AvenirNext-MediumItalic" font-style="italic" font-size="32.3" fill="#838686" transform="matrix(1.00, 0.00, -0.00, -1.00, 427.6, 230.0)"> </text><text xml:space="preserve" font-family="LucidaGrande" font-size="33.9" fill="#34A4DA" transform="matrix(1.00, 0.00, -0.00, -1.00, 36.0, 156.4)">▸</text><text xml:space="preserve" font-family="AvenirNext-MediumItalic" font-style="italic" font-size="32.3" fill="#838686" transform="matrix(1.00, 0.00, -0.00, -1.00, 69.0, 159.0)">w</text><text xml:space="preserve" font-family="AvenirNext-MediumItalic" font-style="italic" font-size="32.3" fill="#838686" transform="matrix(1.00, 0.00, -0.00, -1.00, 93.5, 159.0)">w</text><text xml:space="preserve" font-family="AvenirNext-MediumItalic" font-style="italic" font-size="32.3" fill="#838686" transform="matrix(1.00, 0.00, -0.00, -1.00, 118.0, 159.0)">w</text><text xml:space="preserve" font-family="AvenirNext-MediumItalic" font-style="italic" font-size="32.3" fill="#838686" transform="matrix(1.00, 0.00, -0.00, -1.00, 141.6, 159.0)">.</text><text xml:space="preserve" font-family="AvenirNext-MediumItalic" font-style="italic" font-size="32.3" fill="#838686" transform="matrix(1.00, 0.00, -0.00, -1.00, 150.0, 159.0)">d</text><text xml:space="preserve" font-family="AvenirNext-MediumItalic" font-style="italic" font-size="32.3" fill="#838686" transform="matrix(1.00, 0.00, -0.00, -1.00, 170.3, 159.0)">a</text><text xml:space="preserve" font-family="AvenirNext-MediumItalic" font-style="italic" font-size="32.3" fill="#838686" transform="matrix(1.00, 0.00, -0.00, -1.00, 187.3, 159.0)">t</text><text xml:space="preserve" font-family="AvenirNext-MediumItalic" font-style="italic" font-size="32.3" fill="#838686" transform="matrix(1.00, 0.00, -0.00, -1.00, 197.7, 159.0)">a</text><text xml:space="preserve" font-family="AvenirNext-MediumItalic" font-style="italic" font-size="32.3" fill="#838686" transform="matrix(1.00, 0.00, -0.00, -1.00, 215.1, 159.0)">l</text><text xml:space="preserve" font-family="AvenirNext-MediumItalic" font-style="italic" font-size="32.3" fill="#838686" transform="matrix(1.00, 0.00, -0.00, -1.00, 223.5, 159.0)">o</text><text xml:space="preserve" font-family="AvenirNext-MediumItalic" font-style="italic" font-size="32.3" fill="#838686" transform="matrix(1.00, 0.00, -0.00, -1.00, 242.9, 159.0)">g</text><text xml:space="preserve" font-family="AvenirNext-MediumItalic" font-style="italic" font-size="32.3" fill="#838686" transform="matrix(1.00, 0.00, -0.00, -1.00, 263.2, 159.0)">u</text><text xml:space="preserve" font-family="AvenirNext-MediumItalic" font-style="italic" font-size="32.3" fill="#838686" transform="matrix(1.00, 0.00, -0.00, -1.00, 282.0, 159.0)">e</text><text xml:space="preserve" font-family="AvenirNext-MediumItalic" font-style="italic" font-size="32.3" fill="#838686" transform="matrix(1.00, 0.00, -0.00, -1.00, 300.2, 159.0)">s</text><text xml:space="preserve" font-family="AvenirNext-MediumItalic" font-style="italic" font-size="32.3" fill="#838686" transform="matrix(1.00, 0.00, -0.00, -1.00, 314.6, 159.0)">.</text><text xml:space="preserve" font-family="AvenirNext-MediumItalic" font-style="italic" font-size="32.3" fill="#838686" transform="matrix(1.00, 0.00, -0.00, -1.00, 323.0, 159.0)">c</text><text xml:space="preserve" font-family="AvenirNext-MediumItalic" font-style="italic" font-size="32.3" fill="#838686" transform="matrix(1.00, 0.00, -0.00, -1.00, 339.0, 159.0)">o</text><text xml:space="preserve" font-family="AvenirNext-MediumItalic" font-style="italic" font-size="32.3" fill="#838686" transform="matrix(1.00, 0.00, -0.00, -1.00, 358.4, 159.0)">m</text><text xml:space="preserve" font-family="AvenirNext-MediumItalic" font-style="italic" font-size="32.3" fill="#838686" transform="matrix(1.00, 0.00, -0.00, -1.00, 386.9, 159.0)"> </text><text xml:space="preserve" font-family="AvenirNext-MediumItalic" font-style="italic" font-size="32.3" fill="#838686" transform="matrix(1.00, 0.00, -0.00, -1.00, 403.8, 159.0)"> </text><text xml:space="preserve" font-family="LucidaGrande" font-size="33.9" fill="#34A4DA" transform="matrix(1.00, 0.00, -0.00, -1.00, 36.0, 85.8)">▸</text><text xml:space="preserve" font-family="AvenirNext-MediumItalic" font-style="italic" font-size="32.3" fill="#34A4DA" transform="matrix(1.00, 0.00, -0.00, -1.00, 69.0, 88.0)">h</text><text xml:space="preserve" font-family="AvenirNext-MediumItalic" font-style="italic" font-size="32.3" fill="#34A4DA" transform="matrix(1.00, 0.00, -0.00, -1.00, 87.8, 88.0)">t</text><text xml:space="preserve" font-family="AvenirNext-MediumItalic" font-style="italic" font-size="32.3" fill="#34A4DA" transform="matrix(1.00, 0.00, -0.00, -1.00, 97.7, 88.0)">t</text><text xml:space="preserve" font-family="AvenirNext-MediumItalic" font-style="italic" font-size="32.3" fill="#34A4DA" transform="matrix(1.00, 0.00, -0.00, -1.00, 108.1, 88.0)">p</text><text xml:space="preserve" font-family="AvenirNext-MediumItalic" font-style="italic" font-size="32.3" fill="#34A4DA" transform="matrix(1.00, 0.00, -0.00, -1.00, 128.5, 88.0)">s</text><text xml:space="preserve" font-family="AvenirNext-MediumItalic" font-style="italic" font-size="32.3" fill="#34A4DA" transform="matrix(1.00, 0.00, -0.00, -1.00, 142.9, 88.0)">:</text><text xml:space="preserve" font-family="AvenirNext-MediumItalic" font-style="italic" font-size="32.3" fill="#34A4DA" transform="matrix(1.00, 0.00, -0.00, -1.00, 152.6, 88.0)">/</text><text xml:space="preserve" font-family="AvenirNext-MediumItalic" font-style="italic" font-size="32.3" fill="#34A4DA" transform="matrix(1.00, 0.00, -0.00, -1.00, 164.8, 88.0)">/</text><text xml:space="preserve" font-family="AvenirNext-MediumItalic" font-style="italic" font-size="32.3" fill="#34A4DA" transform="matrix(1.00, 0.00, -0.00, -1.00, 177.0, 88.0)">w</text><text xml:space="preserve" font-family="AvenirNext-MediumItalic" font-style="italic" font-size="32.3" fill="#34A4DA" transform="matrix(1.00, 0.00, -0.00, -1.00, 201.6, 88.0)">w</text><text xml:space="preserve" font-family="AvenirNext-MediumItalic" font-style="italic" font-size="32.3" fill="#34A4DA" transform="matrix(1.00, 0.00, -0.00, -1.00, 226.1, 88.0)">w</text><text xml:space="preserve" font-family="AvenirNext-MediumItalic" font-style="italic" font-size="32.3" fill="#34A4DA" transform="matrix(1.00, 0.00, -0.00, -1.00, 249.6, 88.0)">.</text><text xml:space="preserve" font-family="AvenirNext-MediumItalic" font-style="italic" font-size="32.3" fill="#34A4DA" transform="matrix(1.00, 0.00, -0.00, -1.00, 258.0, 88.0)">c</text><text xml:space="preserve" font-family="AvenirNext-MediumItalic" font-style="italic" font-size="32.3" fill="#34A4DA" transform="matrix(1.00, 0.00, -0.00, -1.00, 274.0, 88.0)">h</text><text xml:space="preserve" font-family="AvenirNext-MediumItalic" font-style="italic" font-size="32.3" fill="#34A4DA" transform="matrix(1.00, 0.00, -0.00, -1.00, 292.8, 88.0)">e</text><text xml:space="preserve" font-family="AvenirNext-MediumItalic" font-style="italic" font-size="32.3" fill="#34A4DA" transform="matrix(1.00, 0.00, -0.00, -1.00, 311.1, 88.0)">n</text><text xml:space="preserve" font-family="AvenirNext-MediumItalic" font-style="italic" font-size="32.3" fill="#34A4DA" transform="matrix(1.00, 0.00, -0.00, -1.00, 329.8, 88.0)">h</text><text xml:space="preserve" font-family="AvenirNext-MediumItalic" font-style="italic" font-size="32.3" fill="#34A4DA" transform="matrix(1.00, 0.00, -0.00, -1.00, 348.6, 88.0)">u</text><text xml:space="preserve" font-family="AvenirNext-MediumItalic" font-style="italic" font-size="32.3" fill="#34A4DA" transform="matrix(1.00, 0.00, -0.00, -1.00, 367.4, 88.0)">i</text><text xml:space="preserve" font-family="AvenirNext-MediumItalic" font-style="italic" font-size="32.3" fill="#34A4DA" transform="matrix(1.00, 0.00, -0.00, -1.00, 375.7, 88.0)">j</text><text xml:space="preserve" font-family="AvenirNext-MediumItalic" font-style="italic" font-size="32.3" fill="#34A4DA" transform="matrix(1.00, 0.00, -0.00, -1.00, 384.1, 88.0)">i</text><text xml:space="preserve" font-family="AvenirNext-MediumItalic" font-style="italic" font-size="32.3" fill="#34A4DA" transform="matrix(1.00, 0.00, -0.00, -1.00, 392.5, 88.0)">n</text><text xml:space="preserve" font-family="AvenirNext-MediumItalic" font-style="italic" font-size="32.3" fill="#34A4DA" transform="matrix(1.00, 0.00, -0.00, -1.00, 411.2, 88.0)">g</text><text xml:space="preserve" font-family="AvenirNext-MediumItalic" font-style="italic" font-size="32.3" fill="#34A4DA" transform="matrix(1.00, 0.00, -0.00, -1.00, 431.6, 88.0)">.</text><text xml:space="preserve" font-family="AvenirNext-MediumItalic" font-style="italic" font-size="32.3" fill="#34A4DA" transform="matrix(1.00, 0.00, -0.00, -1.00, 440.0, 88.0)">c</text><text xml:space="preserve" font-family="AvenirNext-MediumItalic" font-style="italic" font-size="32.3" fill="#34A4DA" transform="matrix(1.00, 0.00, -0.00, -1.00, 456.0, 88.0)">o</text><text xml:space="preserve" font-family="AvenirNext-MediumItalic" font-style="italic" font-size="32.3" fill="#34A4DA" transform="matrix(1.00, 0.00, -0.00, -1.00, 475.4, 88.0)">m</text><text xml:space="preserve" font-family="AvenirNext-MediumItalic" font-style="italic" font-size="32.3" fill="#34A4DA" transform="matrix(1.00, 0.00, -0.00, -1.00, 503.9, 88.0)">/</text><text xml:space="preserve" font-family="AvenirNext-MediumItalic" font-style="italic" font-size="32.3" fill="#34A4DA" transform="matrix(1.00, 0.00, -0.00, -1.00, 516.2, 88.0)">#</text><text xml:space="preserve" font-family="AvenirNext-MediumItalic" font-style="italic" font-size="32.3" fill="#34A4DA" transform="matrix(1.00, 0.00, -0.00, -1.00, 534.7, 88.0)">%</text><text xml:space="preserve" font-family="AvenirNext-MediumItalic" font-style="italic" font-size="32.3" fill="#34A4DA" transform="matrix(1.00, 0.00, -0.00, -1.00, 562.7, 88.0)">F</text><text xml:space="preserve" font-family="AvenirNext-MediumItalic" font-style="italic" font-size="32.3" fill="#34A4DA" transform="matrix(1.00, 0.00, -0.00, -1.00, 580.6, 88.0)">0</text><text xml:space="preserve" font-family="AvenirNext-MediumItalic" font-style="italic" font-size="32.3" fill="#34A4DA" transform="matrix(1.00, 0.00, -0.00, -1.00, 599.8, 88.0)">%</text><text xml:space="preserve" font-family="AvenirNext-MediumItalic" font-style="italic" font-size="32.3" fill="#34A4DA" transform="matrix(1.00, 0.00, -0.00, -1.00, 627.8, 88.0)">9</text><text xml:space="preserve" font-family="AvenirNext-MediumItalic" font-style="italic" font-size="32.3" fill="#34A4DA" transform="matrix(1.00, 0.00, -0.00, -1.00, 647.0, 88.0)">F</text><text xml:space="preserve" font-family="AvenirNext-MediumItalic" font-style="italic" font-size="32.3" fill="#34A4DA" transform="matrix(1.00, 0.00, -0.00, -1.00, 664.9, 88.0)">%</text><text xml:space="preserve" font-family="AvenirNext-MediumItalic" font-style="italic" font-size="32.3" fill="#34A4DA" transform="matrix(1.00, 0.00, -0.00, -1.00, 692.9, 88.0)">8</text><text xml:space="preserve" font-family="AvenirNext-MediumItalic" font-style="italic" font-size="32.3" fill="#34A4DA" transform="matrix(1.00, 0.00, -0.00, -1.00, 712.2, 88.0)">E</text><text xml:space="preserve" font-family="AvenirNext-MediumItalic" font-style="italic" font-size="32.3" fill="#34A4DA" transform="matrix(1.00, 0.00, -0.00, -1.00, 731.0, 88.0)">%</text><text xml:space="preserve" font-family="AvenirNext-MediumItalic" font-style="italic" font-size="32.3" fill="#34A4DA" transform="matrix(1.00, 0.00, -0.00, -1.00, 759.0, 88.0)">A</text><text xml:space="preserve" font-family="AvenirNext-MediumItalic" font-style="italic" font-size="32.3" fill="#34A4DA" transform="matrix(1.00, 0.00, -0.00, -1.00, 781.0, 88.0)">E</text><g><clipPath id="clip-21"><path d="M 68.2 84.2 L 800.0 84.2 L 800.0 87.8 L 68.2 87.8 Z M 68.2 84.2 "></path></clipPath><g clip-path="url(#clip-21)"><path d="M 37.2 462.2 L 768.0 462.2 " fill="none" stroke="#34A4DA" stroke-width="1.62" stroke-miterlimit="0.00" transform="matrix(1.00, 0.00, 0.00, -1.00, 32.0, 548.2)"></path></g></g><text xml:space="preserve" font-family="DINAlternate-Bold" font-weight="bold" font-size="24.0" fill="#838686" transform="matrix(1.00, 0.00, -0.00, -1.00, 976.1, 707.4)">8</text><image xlink:href="../../D2EACDF3-6D39-48E7-A831-14C1066835E5/assets/2C4ABD731743F95A2C81C77B8ADA9FA8.png" width="627.00" height="352.00" transform="matrix(1.51, 0.00, -0.00, -1.51, 40.0, 573.0)"></image></g></svg>